<svg id="svg" xmlns="http://www.w3.org/2000/svg" xmlns:xlink="http://www.w3.org/1999/xlink" width="400" height="400" viewBox="0, 0, 400,400"><g id="svgg">
    <path id="path0"
          d="M302.685 88.923 C 300.243 94.023,298.246 98.454,298.246 98.769 C 298.246 99.084,297.280 101.562,296.099 104.276 C 294.918 106.990,292.343 113.158,290.377 117.982 C 288.411 122.807,286.248 127.939,285.571 129.386 C 284.894 130.833,282.695 135.965,280.686 140.789 C 273.303 158.515,271.748 159.989,253.728 166.334 L 249.123 167.956 249.123 182.662 L 249.123 197.368 240.789 197.368 L 232.456 197.368 232.456 185.018 L 232.456 172.668 229.605 173.218 C 228.037 173.520,224.879 174.183,222.588 174.691 L 218.421 175.614 218.421 190.438 L 218.421 205.263 210.088 205.263 L 201.754 205.263 201.625 193.640 C 201.553 187.248,201.454 181.228,201.405 180.263 C 201.325 178.680,200.611 178.484,194.099 178.254 L 186.883 178.000 186.643 193.605 L 186.404 209.211 178.070 209.211 L 169.737 209.211 169.497 194.140 L 169.257 179.068 164.673 178.606 C 162.151 178.352,155.096 177.941,148.995 177.692 C 142.893 177.442,133.622 176.572,128.392 175.758 C 103.645 171.903,91.266 181.303,82.868 210.324 C 80.812 217.431,78.694 224.357,78.161 225.715 C 76.093 230.989,80.260 235.965,86.746 235.965 C 87.238 235.965,94.664 238.159,103.250 240.840 C 111.835 243.522,122.807 246.917,127.632 248.385 C 132.456 249.853,139.364 251.969,142.982 253.089 C 146.601 254.208,154.298 256.575,160.088 258.350 C 165.877 260.125,172.785 262.295,175.439 263.174 C 178.092 264.053,185.197 266.239,191.228 268.033 C 197.259 269.827,205.026 272.228,208.488 273.367 C 216.289 275.934,216.352 275.933,221.502 273.195 C 240.765 262.953,265.631 255.824,273.793 258.204 C 288.476 262.484,295.295 274.642,292.106 290.853 C 291.543 293.713,291.017 296.589,290.936 297.244 C 290.781 298.507,294.016 299.684,315.351 306.126 C 322.105 308.166,330.592 310.833,334.211 312.052 C 337.829 313.272,342.909 314.315,345.500 314.371 L 350.211 314.474 353.842 303.509 C 356.296 296.096,358.783 290.555,361.517 286.404 C 388.420 245.554,397.529 211.519,386.692 192.339 C 383.758 187.146,383.727 188.401,387.338 166.667 C 391.531 141.429,395.578 116.138,396.129 111.724 L 396.690 107.219 393.740 106.307 C 382.102 102.710,358.364 95.228,354.386 93.903 C 351.732 93.019,344.825 90.835,339.035 89.048 C 333.246 87.262,325.150 84.689,321.044 83.330 C 316.938 81.972,312.127 80.588,310.352 80.255 L 307.125 79.649 302.685 88.923 M146.491 82.293 C 146.491 83.662,138.388 95.204,134.778 98.977 C 117.667 116.858,97.196 116.639,69.737 98.279 C 67.807 96.989,64.741 95.035,62.924 93.938 L 59.620 91.944 61.934 97.946 C 70.765 120.850,72.055 129.520,68.370 141.198 C 62.757 158.982,48.489 167.469,14.474 173.258 C 3.603 175.108,2.777 175.811,9.313 177.655 C 54.135 190.298,64.016 208.536,43.456 240.676 C 39.503 246.855,39.472 246.664,45.138 250.850 C 50.969 255.157,50.200 255.205,53.490 250.330 C 71.458 223.706,70.676 198.016,51.392 181.445 C 49.903 180.166,48.882 178.940,49.123 178.722 C 49.364 178.504,52.522 176.795,56.140 174.922 C 73.564 165.908,83.333 149.333,83.333 128.786 C 83.333 121.181,83.518 120.997,88.898 123.245 C 105.206 130.059,127.883 124.287,142.982 109.479 C 150.094 102.505,152.616 99.126,158.066 89.274 L 159.553 86.586 154.259 84.083 C 148.901 81.548,146.491 80.993,146.491 82.293 "
          stroke="none" fill="#fff" fill-rule="evenodd"/></g></svg>