<svg width="512" height="512" xmlns="http://www.w3.org/2000/svg">
 <!-- Created with Method Draw - http://github.com/duopixel/Method-Draw/ -->

 <g>
  <title>background</title>
 </g>
 <g>
  <title>Layer 1</title>

  <g stroke="null" transform="rotate(-90 256.00021362304693,256.00018310546875) " id="svg_25">
   <g stroke="null" transform="matrix(1.166376574077133,0,0,1.166376574077133,-4552.824924561653,-3275.4738347054613) " id="svg_14">
    <g stroke="null" id="svg_15">
     <g stroke="null" id="svg_16">
      <g stroke="null" font-size="550px" fill="#222222" font-family="Ubuntu" id="svg_17">
       <g stroke="null" id="svg_20">
        <g stroke="null" id="svg_21">
         <g stroke="null" id="svg_22">
          <path stroke="null" fill="#fff" stroke-width="60" id="svg_23" d="m4047.874926,2812.730407c-7.85377,0.00079 -15.6653,3.22779 -21.21875,8.78125c-5.55346,5.55345 -8.78046,13.36498 -8.78125,21.21875l0,370c0.00079,7.8538 3.22779,15.6653 8.78125,21.2188c5.55345,5.5535 13.36498,8.7804 21.21875,8.7812l150,0c7.85377,-0.0008 15.6653,-3.2277 21.21875,-8.7812c5.55346,-5.5535 8.78046,-13.365 8.78125,-21.2188l0,-370c-0.00079,-7.85377 -3.22779,-15.6653 -8.78125,-21.21875c-5.55345,-5.55346 -13.36498,-8.78046 -21.21875,-8.78125l-150,0zm59.28125,20a5.00625,5.00625 0 0 1 0.21875,0a5.0005,5.0005 0 0 1 0.5,0l30,0a5.0005,5.0005 0 1 1 0,10l-30,0a5.0129,5.0129 0 0 1 -0.71875,-10zm-79.28125,30l190,0l0,325l-190,0l0,-325zm95,335c8.28427,0 15,6.71573 15,15c0,8.2843 -6.71573,15 -15,15c-8.28427,0 -15,-6.7157 -15,-15c0,-8.28427 6.71573,-15 15,-15z"/>
         </g>
        </g>
       </g>
       <g stroke="null" id="svg_18">
        <g stroke="null" id="svg_19"/>
       </g>
      </g>
     </g>
    </g>
   </g>
  </g>
 </g>
</svg>