<?xml version="1.0" encoding="UTF-8" standalone="no"?>
<!-- Created with Inkscape (http://www.inkscape.org/) -->

<svg
   xmlns:dc="http://purl.org/dc/elements/1.1/"
   xmlns:cc="http://creativecommons.org/ns#"
   xmlns:rdf="http://www.w3.org/1999/02/22-rdf-syntax-ns#"
   xmlns:svg="http://www.w3.org/2000/svg"
   xmlns="http://www.w3.org/2000/svg"
   xmlns:sodipodi="http://sodipodi.sourceforge.net/DTD/sodipodi-0.dtd"
   xmlns:inkscape="http://www.inkscape.org/namespaces/inkscape"
   width="2048"
   height="2048"
   viewBox="0 0 541.86665 541.86665"
   version="1.1"
   id="svg8"
   inkscape:version="0.92.3 (d244b95, 2018-08-02)"
   sodipodi:docname="rysunek.svg">
  <defs
     id="defs2" />
  <sodipodi:namedview
     id="base"
     pagecolor="#ffffff"
     bordercolor="#666666"
     borderopacity="1.0"
     inkscape:pageopacity="0.0"
     inkscape:pageshadow="2"
     inkscape:zoom="0.25"
     inkscape:cx="630.59434"
     inkscape:cy="1007.9886"
     inkscape:document-units="mm"
     inkscape:current-layer="layer1"
     showgrid="false"
     inkscape:pagecheckerboard="true"
     units="px"
     inkscape:window-width="1280"
     inkscape:window-height="961"
     inkscape:window-x="0"
     inkscape:window-y="38"
     inkscape:window-maximized="1" />
  <metadata
     id="metadata5">
    <rdf:RDF>
      <cc:Work
         rdf:about="">
        <dc:format>image/svg+xml</dc:format>
        <dc:type
           rdf:resource="http://purl.org/dc/dcmitype/StillImage" />
          <dc:title/>
      </cc:Work>
    </rdf:RDF>
  </metadata>
  <g
     inkscape:label="Layer 1"
     inkscape:groupmode="layer"
     id="layer1"
     transform="translate(0,244.86651)">
    <path
       style="fill:#fffff5;stroke-width:0.13229166;fill-opacity:1"
       d="m 15.244468,291.27648 c -0.81737,-0.8197 -1.48612,-1.57924 -1.48612,-1.68788 0,-0.25822 5.56427,-5.81761 5.82271,-5.81761 0.23735,0 8.86166,8.59468 8.86166,8.83121 0,0.12883 -1.27346,0.16463 -5.85606,0.16463 h -5.85607 z m 35.9191,-11.97057 c -7.40324,-7.4035 -13.46043,-13.55063 -13.46043,-13.66028 0,-0.25909 5.56293,-5.81943 5.82216,-5.81943 0.2372,0 32.807,32.5385 32.807,32.77546 0,0.12954 -1.2628,0.16517 -5.85415,0.16517 h -5.85415 z m 55.331232,13.2948 c 0,-0.23647 8.62576,-8.82972 8.86313,-8.82972 0.25749,0 5.68895,5.42805 5.68895,5.68538 0,0.10869 -0.69856,0.89801 -1.55236,1.75405 l -1.55236,1.55641 h -5.72368 c -4.50456,0 -5.72368,-0.0354 -5.72368,-0.16612 z m 52.61694,-1.39029 c -0.85379,-0.85604 -1.55236,-1.64492 -1.55236,-1.75309 0,-0.2589 29.37581,-29.63113 29.63474,-29.63113 0.25913,0 5.68713,5.43068 5.68713,5.68995 0,0.10864 -6.08717,6.28447 -13.52706,13.72409 l -13.52706,13.52659 h -2.58152 -2.58152 z m 43.16222,1.39029 c 0,-0.23769 8.6264,-8.82972 8.86504,-8.82972 0.23761,0 8.86205,8.59442 8.86205,8.83121 0,0.12968 -1.88217,0.16463 -8.86355,0.16463 -7.02402,0 -8.86354,-0.0345 -8.86354,-0.16612 z m 52.61695,-1.39029 c -0.8538,-0.85604 -1.55237,-1.64487 -1.55237,-1.75296 0,-0.25894 77.26523,-77.52084 77.52419,-77.52084 0.25912,0 5.68727,5.43054 5.68727,5.68979 0,0.10856 -16.86227,17.05955 -37.47171,37.6689 l -37.47169,37.47152 h -2.58167 -2.58167 z m 47.88958,0 c -0.8538,-0.85604 -1.55237,-1.64431 -1.55237,-1.75172 0,-0.25836 5.42973,-5.68771 5.68812,-5.68771 0.23888,0 8.86397,8.59321 8.86397,8.83121 0,0.12878 -1.24667,0.16463 -5.72368,0.16463 h -5.72369 z m 35.91901,-11.97065 c -7.43962,-7.43989 -13.52659,-13.61678 -13.52659,-13.72645 0,-0.25911 5.43068,-5.68712 5.68992,-5.68712 0.25739,0 29.63196,29.37419 29.63196,29.63158 0,0.10792 -0.69857,0.8966 -1.55237,1.75264 l -1.55235,1.55641 h -2.582 -2.582 z m 55.13279,13.36094 c 0,-0.23647 8.62576,-8.82972 8.86313,-8.82972 0.25748,0 5.68895,5.42805 5.68895,5.68538 0,0.10869 -0.69857,0.89801 -1.55236,1.75405 l -1.55235,1.55641 h -5.7237 c -4.50455,0 -5.72367,-0.0354 -5.72367,-0.16612 z m 52.61694,-1.39029 c -0.8538,-0.85604 -1.55236,-1.64492 -1.55236,-1.75309 0,-0.2589 29.37581,-29.63113 29.63473,-29.63113 0.25913,0 5.68714,5.43068 5.68714,5.68995 0,0.10864 -6.08718,6.28447 -13.52706,13.72409 l -13.52706,13.52659 h -2.58153 -2.58151 z m 43.16222,1.39029 c 0,-0.23647 8.62576,-8.82972 8.86313,-8.82972 0.25748,0 5.68895,5.42805 5.68895,5.68538 0,0.10869 -0.69857,0.89801 -1.55236,1.75405 l -1.55235,1.55641 h -5.72369 c -4.50456,0 -5.72368,-0.0354 -5.72368,-0.16612 z m -78.38281,-6.73009 c -0.43656,-0.22251 -0.86816,-0.49968 -0.95911,-0.61592 -0.12428,-0.15883 -0.16537,-1.24066 -0.16537,-4.35326 0,-3.22207 -0.0367,-4.1419 -0.16513,-4.1419 -0.0908,0 -1.71897,0.89296 -3.61813,1.98437 -1.89916,1.09141 -3.53093,1.98438 -3.62618,1.98438 -0.0952,0 -1.89423,-0.99006 -3.99776,-2.20015 -2.31589,-1.33223 -3.87241,-2.15233 -3.94578,-2.07896 -0.0666,0.0666 -0.13696,1.9348 -0.15623,4.15144 l -0.0351,4.03027 -0.92604,0.49191 c -0.50932,0.27055 -0.9998,0.49379 -1.08993,0.4961 -0.12714,0.003 -0.17162,-1.2028 -0.19843,-5.38044 l -0.0346,-5.38463 -1.45521,-0.84793 c -0.80036,-0.46637 -2.08028,-1.20937 -2.84427,-1.65112 -3.42107,-1.97814 -4.1695,-2.44451 -4.20368,-2.61944 -0.0213,-0.10892 0.34824,-0.42417 0.88673,-0.75645 0.81717,-0.50425 0.95815,-0.5512 1.22713,-0.40862 0.16714,0.0886 1.63434,0.93165 3.26047,1.87344 1.71863,0.99537 3.00568,1.66325 3.07385,1.59508 0.0645,-0.0645 0.13303,-1.98856 0.15228,-4.2757 l 0.035,-4.1584 1.91823,-1.11018 c 4.25864,-2.46468 4.91107,-2.85219 4.97428,-2.95445 0.0788,-0.12748 -0.0551,-0.21164 -3.486,-2.19089 l -2.6789,-1.54545 v -1.15595 c 0,-1.14155 0.11407,-1.45561 0.43574,-1.19968 0.0878,0.0698 1.3502,0.81009 2.8054,1.64502 1.45521,0.83493 3.22837,1.85449 3.94036,2.26568 0.71198,0.41119 1.36299,0.74762 1.44667,0.74762 0.0837,0 2.2098,-1.18714 4.72474,-2.63809 2.51493,-1.45095 4.6743,-2.67675 4.79858,-2.72401 0.3006,-0.11428 0.39417,0.28013 0.343,1.44579 l -0.0398,0.90682 -3.67109,2.1266 c -2.0191,1.16963 -3.67109,2.19021 -3.67109,2.26796 0,0.0777 1.78666,1.17238 3.97036,2.43255 2.1837,1.26017 4.02917,2.4011 4.10104,2.5354 0.0774,0.1447 0.13068,1.81053 0.13068,4.08933 0,3.61454 0.0143,3.84515 0.23813,3.84515 0.13096,0 0.29468,-0.0522 0.3638,-0.11601 0.10329,-0.0953 3.87216,-2.28875 6.11232,-3.55724 l 0.56268,-0.31861 0.9256,0.57116 c 0.50907,0.31414 0.9256,0.64538 0.9256,0.73611 0,0.21607 0.06,0.17888 -4.83765,3.00083 l -4.22433,2.43403 -0.0661,5.53534 c -0.0572,4.78458 -0.0931,5.53943 -0.26458,5.56551 -0.10914,0.0166 -0.55563,-0.15189 -0.99219,-0.37441 z m -5.59185,-9.32679 c 1.47479,-0.85186 3.06839,-1.76967 3.54133,-2.03956 l 0.85989,-0.49073 0.0349,-4.1611 c 0.0322,-3.8368 0.0167,-4.17674 -0.19843,-4.36193 -0.33237,-0.28608 -7.65257,-4.484 -7.95862,-4.56404 -0.16682,-0.0436 -1.33841,0.55923 -3.40821,1.75373 -1.73471,1.00111 -3.31772,1.93343 -3.51781,2.0718 l -0.3638,0.2516 v 4.21487 c 0,3.59203 0.0297,4.24454 0.20078,4.41566 0.11043,0.11043 0.72063,0.49586 1.35599,0.85652 0.63537,0.36067 2.34583,1.34509 3.80104,2.18763 1.45521,0.84253 2.71911,1.50544 2.80867,1.47315 0.0895,-0.0323 1.36947,-0.75572 2.84427,-1.6076 z M 88.468878,268.45708 c -1.50913,-1.51041 -2.74387,-2.83509 -2.74387,-2.94371 0,-0.25944 29.375272,-29.63196 29.634732,-29.63196 0.25913,0 5.68714,5.43067 5.68714,5.68992 0,0.25944 -29.375262,29.63196 -29.634732,29.63196 -0.10967,0 -1.43414,-1.23579 -2.94327,-2.74621 z m 47.889592,0 c -1.50913,-1.51041 -2.74388,-2.83446 -2.74388,-2.94234 0,-0.25919 5.42934,-5.68854 5.68854,-5.68854 0.26067,0 5.68854,5.4301 5.68854,5.69089 0,0.25909 -5.43156,5.6862 -5.69088,5.6862 -0.10915,0 -1.43319,-1.23579 -2.94232,-2.74621 z m 83.80771,-11.97147 c -8.09447,-8.09471 -14.71722,-14.80739 -14.71722,-14.91706 0,-0.25912 5.43067,-5.68714 5.68992,-5.68714 0.25944,0 29.63196,29.37527 29.63196,29.63474 0,0.25912 -5.43067,5.68714 -5.68992,5.68714 -0.10863,0 -6.82026,-6.62296 -14.91474,-14.71768 z m 155.64019,11.97147 c -1.50913,-1.51041 -2.74387,-2.83446 -2.74387,-2.94234 0,-0.25919 5.42934,-5.68854 5.68854,-5.68854 0.26066,0 5.68854,5.4301 5.68854,5.69089 0,0.25909 -5.43157,5.6862 -5.69088,5.6862 -0.10916,0 -1.4332,-1.23579 -2.94233,-2.74621 z m 47.88958,0 c -1.50913,-1.51041 -2.74387,-2.83502 -2.74387,-2.94358 0,-0.25949 77.26468,-77.52167 77.52418,-77.52167 0.25912,0 5.68727,5.43053 5.68727,5.68979 0,0.25949 -77.26468,77.52167 -77.52418,77.52167 -0.10974,0 -1.43427,-1.23579 -2.9434,-2.74621 z m 83.80772,-11.97147 c -8.09448,-8.09471 -14.71722,-14.80739 -14.71722,-14.91706 0,-0.25912 5.43066,-5.68714 5.68992,-5.68714 0.25943,0 29.63195,29.37527 29.63195,29.63474 0,0.25912 -5.43066,5.68714 -5.68992,5.68714 -0.10862,0 -6.82025,-6.62296 -14.91473,-14.71768 z M 11.740458,239.8828 4.2333483,232.37482 v -5.85348 c 0,-4.60053 0.0355,-5.85347 0.16568,-5.85347 0.23834,0 20.8686897,20.66481 20.8686897,20.90355 0,0.2592 -5.56306,5.81937 -5.82239,5.81937 -0.10876,0 -3.57595,-3.3786 -7.70487,-7.50799 z m 52.78363,4.62949 c -1.50913,-1.51041 -2.74387,-2.83446 -2.74387,-2.94234 0,-0.25919 5.42934,-5.68854 5.68854,-5.68854 0.26067,0 5.68854,5.4301 5.68854,5.69089 0,0.25909 -5.43157,5.6862 -5.69087,5.6862 -0.10916,0 -1.43321,-1.23579 -2.94234,-2.74621 z m 83.807722,-11.97147 c -8.09447,-8.09471 -14.71722,-14.80739 -14.71722,-14.91706 0,-0.25912 5.43067,-5.68714 5.68992,-5.68714 0.25944,0 29.63195,29.37527 29.63195,29.63474 0,0.25912 -5.43066,5.68714 -5.68991,5.68714 -0.10863,0 -6.82026,-6.62296 -14.91474,-14.71768 z m 107.75061,11.97147 c -1.50913,-1.51041 -2.74388,-2.83446 -2.74388,-2.94234 0,-0.25919 5.42935,-5.68854 5.68854,-5.68854 0.26067,0 5.68855,5.4301 5.68855,5.69089 0,0.25909 -5.43157,5.6862 -5.69089,5.6862 -0.10915,0 -1.43319,-1.23579 -2.94232,-2.74621 z m 95.77916,0 c -1.50913,-1.51041 -2.74387,-2.83446 -2.74387,-2.94234 0,-0.25919 5.42934,-5.68854 5.68854,-5.68854 0.26066,0 5.68854,5.4301 5.68854,5.69089 0,0.25909 -5.43157,5.6862 -5.69088,5.6862 -0.10916,0 -1.4332,-1.23579 -2.94233,-2.74621 z m 47.88958,0 c -1.50913,-1.51041 -2.74387,-2.83503 -2.74387,-2.94362 0,-0.25946 53.31994,-53.57684 53.57943,-53.57684 0.25912,0 5.68723,5.43057 5.68723,5.68983 0,0.25946 -53.31994,53.57684 -53.57943,53.57684 -0.10972,0 -1.43423,-1.23579 -2.94336,-2.74621 z M 527.0166,228.10896 c -5.65695,-5.65729 -10.28536,-10.37529 -10.28536,-10.48443 0,-0.23777 20.49964,-20.76916 20.73703,-20.76916 0.12933,0 0.16505,1.23856 0.16505,5.7226 v 5.72258 l -3.378,3.37247 c -3.23092,3.22561 -3.76575,3.84728 -3.76575,4.37716 0,0.13005 -0.0595,0.27325 -0.13229,0.31821 -0.0728,0.045 -0.13229,0.61052 -0.13229,1.25677 0,0.64626 0.0595,1.21181 0.13229,1.25677 0.0728,0.045 0.13229,0.18816 0.13229,0.31822 0,0.52988 0.53483,1.15155 3.76575,4.37716 l 3.378,3.37247 v 5.72258 c 0,4.49573 -0.0355,5.72259 -0.16568,5.72259 -0.0911,0 -4.79409,-4.6287 -10.45104,-10.28599 z M 40.579298,220.5675 c -1.50913,-1.51041 -2.74387,-2.83509 -2.74387,-2.94371 0,-0.25882 29.37494,-29.63196 29.63378,-29.63196 0.25853,0 29.63288,29.37387 29.63288,29.63239 0,0.2593 -5.42847,5.68949 -5.68767,5.68949 -0.10996,0 -4.96229,-4.76445 -10.78295,-10.58765 -5.82066,-5.8232 -10.75588,-10.675 -10.96715,-10.78177 -0.21127,-0.10677 -0.49053,-0.19413 -0.62058,-0.19413 -0.13004,0 -0.27324,-0.0595 -0.31821,-0.13229 -0.045,-0.0728 -0.61051,-0.13229 -1.25677,-0.13229 -0.64625,0 -1.2118,0.0595 -1.25677,0.13229 -0.045,0.0728 -0.18816,0.13229 -0.31821,0.13229 -0.13005,0 -0.40931,0.0874 -0.62058,0.19413 -0.21127,0.10677 -5.14649,4.95857 -10.96715,10.78177 -5.82066,5.8232 -10.67299,10.58765 -10.78295,10.58765 -0.10996,0 -1.43467,-1.23579 -2.9438,-2.74621 z m 143.668752,0 c -1.50913,-1.51041 -2.74388,-2.83447 -2.74388,-2.94234 0,-0.2592 5.42934,-5.68854 5.68854,-5.68854 0.26067,0 5.68854,5.4301 5.68854,5.69089 0,0.25909 -5.43156,5.6862 -5.69088,5.6862 -0.10915,0 -1.43319,-1.23579 -2.94232,-2.74621 z m 47.88958,0 c -1.50913,-1.51041 -2.74388,-2.83447 -2.74388,-2.94234 0,-0.2592 5.42935,-5.68854 5.68854,-5.68854 0.26067,0 5.68855,5.4301 5.68855,5.69089 0,0.25909 -5.43157,5.6862 -5.69089,5.6862 -0.10915,0 -1.43319,-1.23579 -2.94232,-2.74621 z m 47.88958,0 c -1.50913,-1.51041 -2.74388,-2.83447 -2.74388,-2.94234 0,-0.2592 5.42935,-5.68854 5.68855,-5.68854 0.26066,0 5.68854,5.4301 5.68854,5.69089 0,0.25909 -5.43157,5.6862 -5.69089,5.6862 -0.10915,0 -1.43319,-1.23579 -2.94232,-2.74621 z m 95.77916,0 c -1.50913,-1.51041 -2.74387,-2.83447 -2.74387,-2.94234 0,-0.2592 5.42934,-5.68854 5.68854,-5.68854 0.26066,0 5.68854,5.4301 5.68854,5.69089 0,0.25909 -5.43157,5.6862 -5.69088,5.6862 -0.10916,0 -1.4332,-1.23579 -2.94233,-2.74621 z M 11.806608,191.79479 4.2333483,184.22066 v -5.72118 c 0,-4.49458 0.0355,-5.72119 0.16568,-5.72119 0.23836,0 20.8686897,20.66482 20.8686897,20.90358 0,0.25918 -5.43079,5.68704 -5.69013,5.68704 -0.10874,0 -3.60568,-3.40836 -7.77098,-7.57412 z m 88.635622,-7.14355 c -8.094472,-8.09471 -14.717222,-14.80739 -14.717222,-14.91706 0,-0.25912 5.43067,-5.68714 5.68992,-5.68714 0.25944,0 29.631952,29.37527 29.631952,29.63474 0,0.25912 -5.43067,5.68713 -5.68992,5.68713 -0.10862,0 -6.82025,-6.62295 -14.91473,-14.71767 z m 59.86103,11.97147 c -1.50913,-1.51041 -2.74388,-2.83447 -2.74388,-2.94234 0,-0.2592 5.42934,-5.68854 5.68854,-5.68854 0.26067,0 5.68854,5.4301 5.68854,5.69088 0,0.2591 -5.43156,5.6862 -5.69088,5.6862 -0.10915,0 -1.43319,-1.23578 -2.94232,-2.7462 z m 47.88958,0 c -1.50913,-1.51041 -2.74388,-2.83447 -2.74388,-2.94234 0,-0.2592 5.42934,-5.68854 5.68854,-5.68854 0.26067,0 5.68855,5.4301 5.68855,5.69088 0,0.2591 -5.43157,5.6862 -5.69089,5.6862 -0.10915,0 -1.43319,-1.23578 -2.94232,-2.7462 z m 47.88958,0 c -1.50913,-1.51041 -2.74388,-2.83509 -2.74388,-2.94371 0,-0.25944 29.37527,-29.63196 29.63474,-29.63196 0.25912,0 5.68714,5.43067 5.68714,5.68992 0,0.25944 -29.37527,29.63195 -29.63474,29.63195 -0.10967,0 -1.43413,-1.23578 -2.94326,-2.7462 z m 47.88958,0 c -1.50913,-1.51041 -2.74388,-2.83509 -2.74388,-2.94371 0,-0.25882 29.37494,-29.63196 29.63379,-29.63196 0.25853,0 29.63288,29.37387 29.63288,29.63239 0,0.2593 -5.42847,5.68948 -5.68767,5.68948 -0.10996,0 -4.99205,-4.79421 -10.84909,-10.65379 -5.85704,-5.85958 -10.82203,-10.74114 -11.0333,-10.84791 -0.21127,-0.10678 -0.49054,-0.19413 -0.62058,-0.19413 -0.13006,0 -0.27325,-0.0595 -0.31821,-0.13229 -0.045,-0.0728 -0.55099,-0.13229 -1.12448,-0.13229 -0.5735,0 -1.07952,0.0595 -1.12448,0.13229 -0.045,0.0728 -0.18816,0.13229 -0.31822,0.13229 -0.13004,0 -0.40931,0.0874 -0.62058,0.19413 -0.21127,0.10677 -5.17625,4.98833 -11.03329,10.84791 -5.85705,5.85958 -10.73914,10.65379 -10.8491,10.65379 -0.10996,0 -1.43466,-1.23578 -2.94379,-2.7462 z m 95.77916,0 c -1.50913,-1.51041 -2.74387,-2.83447 -2.74387,-2.94234 0,-0.2592 5.42934,-5.68854 5.68854,-5.68854 0.26067,0 5.68854,5.4301 5.68854,5.69088 0,0.2591 -5.43157,5.6862 -5.69088,5.6862 -0.10916,0 -1.4332,-1.23578 -2.94233,-2.7462 z M 40.579298,172.67792 c -1.50913,-1.51041 -2.74387,-2.83447 -2.74387,-2.94234 0,-0.2592 5.42934,-5.68854 5.68854,-5.68854 0.26067,0 5.68854,5.4301 5.68854,5.69088 0,0.2591 -5.43157,5.6862 -5.69087,5.6862 -0.10916,0 -1.43321,-1.23578 -2.94234,-2.7462 z m 71.835432,-23.94376 c -14.679352,-14.67948 -26.689722,-26.77931 -26.689722,-26.8885 0,-0.25951 29.374272,-29.632987 29.633782,-29.632987 0.26005,0 29.63288,29.374657 29.63288,29.634727 0,0.25918 -5.43069,5.68714 -5.69001,5.68714 -0.10867,0 -4.95994,-4.76444 -10.78061,-10.58764 -5.82066,-5.8232 -10.75588,-10.675 -10.96715,-10.78177 -0.21127,-0.10678 -0.49053,-0.19413 -0.62058,-0.19413 -0.13004,0 -0.27324,-0.0595 -0.31821,-0.13229 -0.045,-0.0728 -0.61051,-0.13229 -1.25677,-0.13229 -0.64625,0 -1.2118,0.0595 -1.25677,0.13229 -0.045,0.0728 -0.19812,0.13229 -0.34033,0.13229 -0.14221,0 -0.39171,0.0736 -0.55443,0.16345 -0.4716,0.26055 -13.314642,13.09084 -13.529412,13.51599 -0.10673,0.21127 -0.19406,0.49053 -0.19406,0.62058 0,0.13005 -0.0595,0.27325 -0.13229,0.31821 -0.0728,0.045 -0.13229,0.61051 -0.13229,1.25677 0,0.64626 0.0595,1.21181 0.13229,1.25677 0.0728,0.045 0.13229,0.18816 0.13229,0.31822 0,0.13004 0.0874,0.40931 0.19419,0.62058 0.10681,0.21127 10.346182,10.53413 22.754172,22.9397 12.40799,12.40557 22.55997,22.64548 22.55997,22.75534 0,0.25931 -5.4304,5.68751 -5.68982,5.68751 -0.10857,0 -12.20777,-12.01048 -26.88712,-26.68996 z m 71.83332,23.94376 c -1.50913,-1.51041 -2.74388,-2.83504 -2.74388,-2.94362 0,-0.25946 53.31994,-53.57684 53.57943,-53.57684 0.25912,0 5.68724,5.43057 5.68724,5.68983 0,0.25946 -53.31995,53.57683 -53.57944,53.57683 -0.10972,0 -1.43422,-1.23578 -2.94335,-2.7462 z m 47.88958,0 c -1.50913,-1.51041 -2.74388,-2.83447 -2.74388,-2.94234 0,-0.2592 5.42935,-5.68854 5.68854,-5.68854 0.26067,0 5.68855,5.4301 5.68855,5.69088 0,0.2591 -5.43157,5.6862 -5.69089,5.6862 -0.10915,0 -1.43319,-1.23578 -2.94232,-2.7462 z m 119.72501,-23.94376 c -14.67935,-14.67948 -26.68973,-26.77975 -26.68973,-26.88947 0,-0.25912 5.43058,-5.68723 5.68983,-5.68723 0.25946,0 53.57684,53.31994 53.57684,53.57943 0,0.25912 -5.43057,5.68723 -5.68983,5.68723 -0.10857,0 -12.20776,-12.01048 -26.88711,-26.68996 z m 71.83331,23.94376 c -1.50913,-1.51041 -2.74387,-2.83504 -2.74387,-2.94362 0,-0.25946 53.31994,-53.57684 53.57943,-53.57684 0.25912,0 5.68723,5.43057 5.68723,5.68983 0,0.25946 -53.31994,53.57683 -53.57943,53.57683 -0.10972,0 -1.43423,-1.23578 -2.94336,-2.7462 z m 47.88958,0 c -1.50913,-1.51041 -2.74387,-2.83509 -2.74387,-2.94371 0,-0.25944 29.37527,-29.63196 29.63473,-29.63196 0.25912,0 5.68714,5.43067 5.68714,5.68992 0,0.25944 -29.37527,29.63195 -29.63473,29.63195 -0.10967,0 -1.43414,-1.23578 -2.94327,-2.7462 z m 47.88958,0 c -1.50913,-1.51041 -2.74387,-2.83513 -2.74387,-2.94381 0,-0.23721 20.50018,-20.76832 20.73703,-20.76832 0.12933,0 0.16505,1.23845 0.16505,5.72205 v 5.72205 l -7.50799,7.50712 c -4.12939,4.12891 -7.59761,7.50711 -7.70716,7.50711 -0.10955,0 -1.43393,-1.23578 -2.94306,-2.7462 z M 11.806608,143.90521 4.2333483,136.33108 v -5.72118 c 0,-4.49458 0.0355,-5.72119 0.16568,-5.72119 0.23836,0 20.8686897,20.66482 20.8686897,20.90358 0,0.25918 -5.43079,5.68704 -5.69013,5.68704 -0.10874,0 -3.60568,-3.40836 -7.77098,-7.57412 z m 52.71748,4.82792 c -1.50913,-1.51041 -2.74387,-2.83447 -2.74387,-2.94234 0,-0.2592 5.42934,-5.68854 5.68854,-5.68854 0.26067,0 5.68854,5.4301 5.68854,5.69088 0,0.2591 -5.43157,5.6862 -5.69087,5.6862 -0.10916,0 -1.43321,-1.23579 -2.94234,-2.7462 z m 95.779172,0 c -1.50913,-1.51041 -2.74388,-2.83447 -2.74388,-2.94234 0,-0.2592 5.42934,-5.68854 5.68854,-5.68854 0.26067,0 5.68854,5.4301 5.68854,5.69088 0,0.2591 -5.43156,5.6862 -5.69088,5.6862 -0.10915,0 -1.43319,-1.23579 -2.94232,-2.7462 z m 95.77916,0 c -1.50913,-1.51041 -2.74388,-2.83509 -2.74388,-2.94371 0,-0.25944 29.37527,-29.63196 29.63474,-29.63196 0.25912,0 5.68714,5.43067 5.68714,5.68992 0,0.25943 -29.37527,29.63195 -29.63474,29.63195 -0.10967,0 -1.43413,-1.23579 -2.94326,-2.7462 z m 47.88958,0 c -1.50913,-1.51041 -2.74388,-2.83447 -2.74388,-2.94234 0,-0.2592 5.42935,-5.68854 5.68855,-5.68854 0.26066,0 5.68854,5.4301 5.68854,5.69088 0,0.2591 -5.43157,5.6862 -5.69089,5.6862 -0.10915,0 -1.43319,-1.23579 -2.94232,-2.7462 z m 95.77916,0 c -1.50913,-1.51041 -2.74387,-2.83447 -2.74387,-2.94234 0,-0.2592 5.42934,-5.68854 5.68854,-5.68854 0.26067,0 5.68854,5.4301 5.68854,5.69088 0,0.2591 -5.43157,5.6862 -5.69088,5.6862 -0.10916,0 -1.4332,-1.23579 -2.94233,-2.7462 z m 115.29321,-28.37555 c -12.24186,-12.24202 -22.25792,-22.347977 -22.25792,-22.457687 0,-0.25914 5.4306,-5.68722 5.68986,-5.68722 0.1086,0 8.96336,8.766057 19.67724,19.480117 l 19.47977,19.4801 v 5.72146 c 0,4.49167 -0.0356,5.72144 -0.16551,5.72144 -0.091,0 -10.18158,-10.0162 -22.42344,-22.25821 z m -474.465072,4.43076 c -1.50913,-1.51041 -2.74387,-2.83447 -2.74387,-2.94234 0,-0.2592 5.42934,-5.68854 5.68854,-5.68854 0.26067,0 5.68854,5.4301 5.68854,5.69088 0,0.2591 -5.43157,5.6862 -5.69087,5.6862 -0.10916,0 -1.43321,-1.23579 -2.94234,-2.7462 z m 143.668752,0 c -1.50913,-1.51041 -2.74388,-2.83509 -2.74388,-2.94371 0,-0.25944 29.37527,-29.631957 29.63474,-29.631957 0.25912,0 5.68714,5.43067 5.68714,5.68992 0,0.25944 -29.37528,29.631947 -29.63474,29.631947 -0.10967,0 -1.43413,-1.23579 -2.94326,-2.7462 z m 179.58688,-11.97147 c -8.09448,-8.09471 -14.71722,-14.807387 -14.71722,-14.917057 0,-0.25912 5.43066,-5.68714 5.68991,-5.68714 0.25944,0 29.63196,29.375267 29.63196,29.634727 0,0.25912 -5.43067,5.68714 -5.68992,5.68714 -0.10862,0 -6.82026,-6.62295 -14.91473,-14.71767 z m 47.88958,0 c -8.09448,-8.09471 -14.71722,-14.807387 -14.71722,-14.917057 0,-0.25912 5.43066,-5.68714 5.68991,-5.68714 0.25944,0 29.63196,29.375267 29.63196,29.634727 0,0.25912 -5.43067,5.68714 -5.68992,5.68714 -0.10862,0 -6.82025,-6.62295 -14.91473,-14.71767 z M 16.634508,100.84355 c -1.50913,-1.510407 -2.74387,-2.835087 -2.74387,-2.943707 0,-0.25944 29.37527,-29.63196 29.63473,-29.63196 0.25913,0 5.68714,5.43067 5.68714,5.68992 0,0.25944 -29.37527,29.631947 -29.63473,29.631947 -0.10967,0 -1.43414,-1.23579 -2.94327,-2.7462 z m 47.88958,0 c -1.50913,-1.510407 -2.74387,-2.834457 -2.74387,-2.942337 0,-0.25919 5.42934,-5.68854 5.68854,-5.68854 0.26067,0 5.68854,5.4301 5.68854,5.69089 0,0.25909 -5.43157,5.686187 -5.69087,5.686187 -0.10916,0 -1.43321,-1.23579 -2.94234,-2.7462 z m 95.779172,0 c -1.50913,-1.510407 -2.74388,-2.834457 -2.74388,-2.942337 0,-0.25919 5.42934,-5.68854 5.68854,-5.68854 0.26067,0 5.68854,5.4301 5.68854,5.69089 0,0.25909 -5.43156,5.686187 -5.69088,5.686187 -0.10915,0 -1.43319,-1.23579 -2.94232,-2.7462 z m 95.77916,0 c -1.50913,-1.510407 -2.74388,-2.834457 -2.74388,-2.942337 0,-0.25919 5.42935,-5.68854 5.68854,-5.68854 0.26067,0 5.68855,5.4301 5.68855,5.69089 0,0.25909 -5.43157,5.686187 -5.69089,5.686187 -0.10915,0 -1.43319,-1.23579 -2.94232,-2.7462 z m 47.88958,0 c -1.50913,-1.510407 -2.74388,-2.834457 -2.74388,-2.942337 0,-0.25919 5.42935,-5.68854 5.68855,-5.68854 0.26066,0 5.68854,5.4301 5.68854,5.69089 0,0.25909 -5.43157,5.686187 -5.69089,5.686187 -0.10915,0 -1.43319,-1.23579 -2.94232,-2.7462 z m 143.66874,0 c -1.50913,-1.510407 -2.74387,-2.835087 -2.74387,-2.943707 0,-0.25944 29.37527,-29.63196 29.63473,-29.63196 0.25912,0 5.68714,5.43067 5.68714,5.68992 0,0.25944 -29.37527,29.631947 -29.63473,29.631947 -0.10967,0 -1.43414,-1.23579 -2.94327,-2.7462 z M 527.0166,84.440223 c -5.65695,-5.65729 -10.28536,-10.37567 -10.28536,-10.48529 0,-0.25864 5.43052,-5.68705 5.68927,-5.68705 0.10827,0 3.57543,3.3782 7.70482,7.50712 l 7.50799,7.50711 v 5.72205 c 0,4.49531 -0.0355,5.72206 -0.16568,5.72206 -0.0911,0 -4.79409,-4.6287 -10.45104,-10.286 z M 88.468878,76.898763 c -1.50913,-1.51041 -2.74387,-2.83446 -2.74387,-2.94234 0,-0.25919 5.42934,-5.68854 5.68854,-5.68854 0.26067,0 5.68854,5.4301 5.68854,5.69089 0,0.25909 -5.43157,5.6862 -5.69087,5.6862 -0.10916,0 -1.43321,-1.23579 -2.94234,-2.74621 z m 47.889592,0 c -1.50913,-1.51041 -2.74388,-2.83446 -2.74388,-2.94234 0,-0.25919 5.42934,-5.68854 5.68854,-5.68854 0.26067,0 5.68854,5.4301 5.68854,5.69089 0,0.25909 -5.43156,5.6862 -5.69088,5.6862 -0.10915,0 -1.43319,-1.23579 -2.94232,-2.74621 z m 47.88958,0 c -1.50913,-1.51041 -2.74388,-2.83509 -2.74388,-2.94371 0,-0.25882 29.37494,-29.631958 29.63378,-29.631958 0.25854,0 29.63289,29.373868 29.63289,29.632398 0,0.25929 -5.42847,5.68948 -5.68767,5.68948 -0.10996,0 -4.96229,-4.76445 -10.78295,-10.58765 -5.82067,-5.8232 -10.75588,-10.674998 -10.96715,-10.78177 -0.21127,-0.106773 -0.49054,-0.194125 -0.62058,-0.194125 -0.13006,0 -0.27325,-0.05953 -0.31822,-0.132292 -0.045,-0.07276 -0.61051,-0.132292 -1.25677,-0.132292 -0.64625,0 -1.2118,0.05953 -1.25677,0.132292 -0.045,0.07276 -0.18816,0.132292 -0.31821,0.132292 -0.13004,0 -0.40931,0.08735 -0.62058,0.194125 -0.21127,0.106772 -5.14648,4.95857 -10.96715,10.78177 -5.82066,5.8232 -10.67299,10.58765 -10.78295,10.58765 -0.10996,0 -1.43466,-1.23579 -2.94379,-2.74621 z m 83.80772,-11.97147 c -8.09448,-8.094712 -14.71723,-14.807389 -14.71723,-14.917059 0,-0.259119 5.43067,-5.687139 5.68992,-5.687139 0.25944,0 29.63196,29.375268 29.63196,29.634738 0,0.25912 -5.43067,5.68714 -5.68992,5.68714 -0.10863,0 -6.82026,-6.62296 -14.91473,-14.71768 z m 47.88958,0 c -8.09448,-8.094712 -14.71723,-14.807389 -14.71723,-14.917059 0,-0.259172 5.4307,-5.687139 5.69001,-5.687139 0.10867,0 4.98971,4.79421 10.84676,10.653791 5.85704,5.859582 10.82202,10.741147 11.03329,10.847917 0.21127,0.10677 0.49054,0.19412 0.62058,0.19412 0.13006,0 0.27325,0.0595 0.31822,0.1323 0.045,0.0728 0.55098,0.13229 1.12448,0.13229 0.57349,0 1.07951,-0.0595 1.12448,-0.13229 0.045,-0.0728 0.18815,-0.1323 0.31821,-0.1323 0.13004,0 0.40931,-0.0874 0.62058,-0.19412 0.21127,-0.10677 5.17626,-4.988335 11.0333,-10.847917 5.85704,-5.859581 10.73869,-10.653791 10.84814,-10.653791 0.25888,0 29.63341,29.373528 29.63341,29.632398 0,0.25929 -5.42847,5.68948 -5.68767,5.68948 -0.10996,0 -4.96229,-4.76445 -10.78295,-10.58765 -5.82067,-5.8232 -10.75588,-10.674998 -10.96715,-10.78177 -0.21127,-0.106773 -0.49054,-0.194125 -0.62058,-0.194125 -0.13005,0 -0.27325,-0.05953 -0.31821,-0.132292 -0.045,-0.07276 -0.61052,-0.132292 -1.25677,-0.132292 -0.64626,0 -1.21181,0.05953 -1.25677,0.132292 -0.045,0.07276 -0.18816,0.132292 -0.31822,0.132292 -0.13004,0 -0.40931,0.08735 -0.62058,0.194125 -0.21127,0.106772 -5.14647,4.95857 -10.96715,10.78177 -5.82066,5.8232 -10.67255,10.58765 -10.78198,10.58765 -0.10945,0 -6.82173,-6.62296 -14.9162,-14.71768 z m 107.7506,11.97147 c -1.50913,-1.51041 -2.74387,-2.83446 -2.74387,-2.94234 0,-0.25919 5.42934,-5.68854 5.68854,-5.68854 0.26067,0 5.68854,5.4301 5.68854,5.69089 0,0.25909 -5.43157,5.6862 -5.69088,5.6862 -0.10916,0 -1.4332,-1.23579 -2.94233,-2.74621 z M 11.806608,48.126057 4.2333483,40.551923 v -5.721178 c 0,-4.498472 0.0354,-5.721191 0.16589,-5.721191 0.0912,0 2.96362,2.799953 6.3830697,6.2221 3.41945,3.422161 6.39004,6.309426 6.60131,6.416146 0.21127,0.106733 0.49053,0.194045 0.62058,0.194045 0.13005,0 0.27324,0.05953 0.31821,0.132292 0.045,0.07276 0.61052,0.132292 1.25677,0.132292 0.64626,0 1.2118,-0.05953 1.25677,-0.132292 0.045,-0.07276 0.18816,-0.132292 0.31821,-0.132292 0.13005,0 0.40931,-0.08735 0.62058,-0.194125 0.21127,-0.106772 5.14649,-4.958569 10.96715,-10.78177 5.82066,-5.823201 10.67299,-10.587645 10.78295,-10.587645 0.25948,0 5.68767,5.430334 5.68767,5.689917 0,0.258961 -29.37501,29.631956 -29.63398,29.631956 -0.10926,0 -3.60662,-3.408362 -7.77192,-7.574121 z m 52.71748,4.827918 c -1.50913,-1.510414 -2.74387,-2.834468 -2.74387,-2.942339 0,-0.259199 5.42934,-5.688541 5.68854,-5.688541 0.26067,0 5.68854,5.430097 5.68854,5.690883 0,0.259093 -5.43157,5.6862 -5.69087,5.6862 -0.10916,0 -1.43321,-1.235789 -2.94234,-2.746203 z m 47.889582,0 c -1.50913,-1.510414 -2.74387,-2.834468 -2.74387,-2.942339 0,-0.259199 5.42934,-5.688541 5.68854,-5.688541 0.26067,0 5.68854,5.430097 5.68854,5.690883 0,0.259093 -5.43157,5.6862 -5.69087,5.6862 -0.10916,0 -1.43321,-1.235789 -2.94234,-2.746203 z m 35.91814,-11.971469 c -8.09447,-8.094715 -14.71722,-14.807393 -14.71722,-14.917062 0,-0.25912 5.43067,-5.687139 5.68992,-5.687139 0.25944,0 29.63195,29.37527 29.63195,29.634734 0,0.259119 -5.43066,5.687139 -5.68991,5.687139 -0.10863,0 -6.82026,-6.622957 -14.91474,-14.717672 z m 251.41935,11.971469 c -1.50913,-1.510414 -2.74387,-2.83509 -2.74387,-2.943714 0,-0.258816 29.37494,-29.631956 29.63378,-29.631956 0.25854,0 29.63288,29.373868 29.63288,29.632392 0,0.259292 -5.42847,5.689481 -5.68767,5.689481 -0.10996,0 -4.99205,-4.79421 -10.84909,-10.653791 -5.85704,-5.859582 -10.82203,-10.741144 -11.0333,-10.847917 -0.21127,-0.106772 -0.49054,-0.194124 -0.62058,-0.194124 -0.13005,0 -0.27325,-0.05953 -0.31821,-0.132292 -0.045,-0.07276 -0.55098,-0.132292 -1.12448,-0.132292 -0.5735,0 -1.07951,0.05953 -1.12448,0.132292 -0.045,0.07276 -0.18816,0.132292 -0.31822,0.132292 -0.13004,0 -0.40931,0.08735 -0.62058,0.194124 -0.21127,0.106773 -5.17625,4.988335 -11.03329,10.847917 -5.85704,5.859581 -10.73913,10.653791 -10.8491,10.653791 -0.10996,0 -1.43466,-1.235789 -2.94379,-2.746203 z m 95.77916,0 c -1.50913,-1.510414 -2.74387,-2.834468 -2.74387,-2.942339 0,-0.259199 5.42934,-5.688541 5.68854,-5.688541 0.26067,0 5.68854,5.430097 5.68854,5.690883 0,0.259093 -5.43156,5.6862 -5.69088,5.6862 -0.10916,0 -1.4332,-1.235789 -2.94233,-2.746203 z M 88.468878,29.009185 c -1.50913,-1.510414 -2.74387,-2.834468 -2.74387,-2.942339 0,-0.259199 5.42934,-5.688541 5.68854,-5.688541 0.26067,0 5.68854,5.430096 5.68854,5.690883 0,0.259093 -5.43157,5.686199 -5.69087,5.686199 -0.10916,0 -1.43321,-1.235789 -2.94234,-2.746202 z M 172.2766,17.037715 C 164.18213,8.9430003 157.55938,2.2303233 157.55938,2.1206533 c 0,-0.25912 5.43067,-5.687139 5.68992,-5.687139 0.25944,0 29.63195,29.3752707 29.63195,29.6347337 0,0.25912 -5.43066,5.687139 -5.68991,5.687139 -0.10863,0 -6.82026,-6.622957 -14.91474,-14.717672 z m 47.88958,0 C 212.07171,8.9430003 205.44896,2.2303233 205.44896,2.1206533 c 0,-0.25912 5.43067,-5.687139 5.68992,-5.687139 0.25944,0 29.63196,29.3752707 29.63196,29.6347337 0,0.25912 -5.43067,5.687139 -5.68992,5.687139 -0.10863,0 -6.82026,-6.622957 -14.91474,-14.717672 z m 59.86103,11.97147 c -1.50913,-1.510414 -2.74388,-2.834468 -2.74388,-2.942339 0,-0.259199 5.42935,-5.688541 5.68855,-5.688541 0.26066,0 5.68854,5.430096 5.68854,5.690883 0,0.259093 -5.43157,5.686199 -5.69089,5.686199 -0.10915,0 -1.43319,-1.235789 -2.94232,-2.746202 z m 47.88958,0 c -1.50913,-1.510414 -2.74388,-2.83509 -2.74388,-2.943715 0,-0.259437 29.37528,-29.6319557 29.63474,-29.6319557 0.25912,0 5.68714,5.430665 5.68714,5.689917 0,0.259437 -29.37527,29.6319557 -29.63474,29.6319557 -0.10967,0 -1.43413,-1.235789 -2.94326,-2.746202 z m 47.88958,0 c -1.50913,-1.510414 -2.74387,-2.834468 -2.74387,-2.942339 0,-0.259199 5.42934,-5.688541 5.68854,-5.688541 0.26066,0 5.68854,5.430096 5.68854,5.690883 0,0.259093 -5.43157,5.686199 -5.69088,5.686199 -0.10916,0 -1.4332,-1.235789 -2.94233,-2.746202 z m 95.77916,0 c -1.50913,-1.510414 -2.74387,-2.834468 -2.74387,-2.942339 0,-0.259199 5.42934,-5.688541 5.68854,-5.688541 0.26067,0 5.68854,5.430096 5.68854,5.690883 0,0.259093 -5.43156,5.686199 -5.69088,5.686199 -0.10916,0 -1.4332,-1.235789 -2.94233,-2.746202 z M 495.53138,5.0654263 c -14.67935,-14.67948 -26.68972,-26.7797483 -26.68972,-26.8894713 0,-0.259119 5.43057,-5.687231 5.68982,-5.687231 0.25947,0 53.57684,53.319942 53.57684,53.579432 0,0.259119 -5.43057,5.687231 -5.68982,5.687231 -0.10857,0 -12.20777,-12.010482 -26.88712,-26.6899607 z M 11.806608,0.23647633 4.2333483,-7.3376577 v -5.7211783 c 0,-4.494583 0.0355,-5.721191 0.16568,-5.721191 0.23836,0 20.8686897,20.6648173 20.8686897,20.9035773 0,0.259186 -5.43079,5.687047 -5.69013,5.687047 -0.10874,0 -3.60568,-3.408363 -7.77098,-7.57412097 z m 52.71748,4.82791797 c -1.50913,-1.510414 -2.74387,-2.834468 -2.74387,-2.942339 0,-0.259199 5.42934,-5.688541 5.68854,-5.688541 0.26067,0 5.68854,5.430096 5.68854,5.690883 0,0.259093 -5.43157,5.6862 -5.69087,5.6862 -0.10916,0 -1.43321,-1.23579 -2.94234,-2.746203 z m 23.94585,-23.9437593 c -14.67935,-14.679479 -26.68972,-26.779747 -26.68972,-26.88947 0,-0.25912 5.43058,-5.687232 5.68982,-5.687232 0.25947,0 53.576842,53.3199423 53.576842,53.5794323 0,0.25912 -5.43057,5.687232 -5.68981,5.687232 -0.10858,0 -12.20779,-12.010482 -26.887132,-26.6899623 z M 256.08242,5.0643943 c -1.50913,-1.510414 -2.74388,-2.834468 -2.74388,-2.942339 0,-0.259199 5.42935,-5.688541 5.68854,-5.688541 0.26067,0 5.68855,5.430096 5.68855,5.690883 0,0.259093 -5.43157,5.6862 -5.69089,5.6862 -0.10915,0 -1.43319,-1.23579 -2.94232,-2.746203 z m 35.91814,-11.97147 c -8.09448,-8.0947143 -14.71723,-14.8073913 -14.71723,-14.9170613 0,-0.25912 5.43067,-5.687139 5.68992,-5.687139 0.25944,0 29.63196,29.3752703 29.63196,29.6347333 0,0.25912 -5.43067,5.68714 -5.68992,5.68714 -0.10862,0 -6.82026,-6.622958 -14.91473,-14.717673 z m 107.7506,11.97147 c -1.50913,-1.510414 -2.74387,-2.83509 -2.74387,-2.943715 0,-0.259437 29.37527,-29.6319553 29.63473,-29.6319553 0.25912,0 5.68714,5.430665 5.68714,5.689917 0,0.259437 -29.37527,29.6319563 -29.63473,29.6319563 -0.10967,0 -1.43414,-1.23579 -2.94327,-2.746203 z m 47.88958,0 c -1.50913,-1.510414 -2.74387,-2.834468 -2.74387,-2.942339 0,-0.259199 5.42934,-5.688541 5.68854,-5.688541 0.26067,0 5.68854,5.430096 5.68854,5.690883 0,0.259093 -5.43156,5.6862 -5.69088,5.6862 -0.10916,0 -1.4332,-1.23579 -2.94233,-2.746203 z m 67.40363,-28.3755563 c -12.24186,-12.242019 -22.25792,-22.347977 -22.25792,-22.457686 0,-0.259147 5.4306,-5.687219 5.68986,-5.687219 0.1086,0 8.96336,8.766056 19.67724,19.480119 l 19.47977,19.480106 v 5.7214553 c 0,4.491672 -0.0356,5.721442 -0.16551,5.721442 -0.091,0 -10.18158,-10.0161983 -22.42344,-22.2582173 z m -474.465072,4.430766 c -1.50913,-1.510414 -2.74387,-2.834468 -2.74387,-2.942339 0,-0.259199 5.42934,-5.688541 5.68854,-5.688541 0.26067,0 5.68854,5.430096 5.68854,5.690883 0,0.259093 -5.43157,5.686199 -5.69087,5.686199 -0.10916,0 -1.43321,-1.235789 -2.94234,-2.746202 z m 83.807732,-11.97147 c -8.09448,-8.094715 -14.71723,-14.807392 -14.71723,-14.917062 0,-0.259119 5.43067,-5.687139 5.68992,-5.687139 0.25944,0 29.63195,29.375271 29.63195,29.634734 0,0.25912 -5.43066,5.687139 -5.68991,5.687139 -0.10863,0 -6.82026,-6.622957 -14.91473,-14.717672 z m 59.86102,11.97147 c -1.50913,-1.510414 -2.74388,-2.83509 -2.74388,-2.943715 0,-0.259437 29.37527,-29.631956 29.63474,-29.631956 0.25912,0 5.68714,5.430665 5.68714,5.689917 0,0.259438 -29.37528,29.631956 -29.63474,29.631956 -0.10967,0 -1.43413,-1.235789 -2.94326,-2.746202 z m 47.88958,0 c -1.50913,-1.510414 -2.74388,-2.83509 -2.74388,-2.943715 0,-0.259437 29.37527,-29.631956 29.63474,-29.631956 0.25912,0 5.68714,5.430665 5.68714,5.689917 0,0.259438 -29.37527,29.631956 -29.63474,29.631956 -0.10967,0 -1.43413,-1.235789 -2.94326,-2.746202 z m 83.80772,-11.97147 c -8.09448,-8.094715 -14.71723,-14.807392 -14.71723,-14.917062 0,-0.259119 5.43067,-5.687139 5.68992,-5.687139 0.25944,0 29.63196,29.375271 29.63196,29.634734 0,0.25912 -5.43067,5.687139 -5.68992,5.687139 -0.10862,0 -6.82026,-6.622957 -14.91473,-14.717672 z m 59.86102,11.97147 c -1.50913,-1.510414 -2.74387,-2.834468 -2.74387,-2.942339 0,-0.259199 5.42934,-5.688541 5.68854,-5.688541 0.26066,0 5.68854,5.430096 5.68854,5.690883 0,0.259093 -5.43157,5.686199 -5.69088,5.686199 -0.10916,0 -1.4332,-1.235789 -2.94233,-2.746202 z M 16.634508,-42.825187 c -1.50913,-1.510414 -2.74387,-2.834468 -2.74387,-2.942338 0,-0.2592 5.42934,-5.688542 5.68854,-5.688542 0.26067,0 5.68854,5.430097 5.68854,5.690883 0,0.259093 -5.43157,5.6862 -5.69087,5.6862 -0.10916,0 -1.43321,-1.235789 -2.94234,-2.746203 z m 143.668752,0 c -1.50913,-1.510414 -2.74388,-2.834468 -2.74388,-2.942338 0,-0.2592 5.42934,-5.688542 5.68854,-5.688542 0.26067,0 5.68854,5.430097 5.68854,5.690883 0,0.259093 -5.43156,5.6862 -5.69088,5.6862 -0.10915,0 -1.43319,-1.235789 -2.94232,-2.746203 z m 191.55832,0 c -1.50913,-1.510414 -2.74387,-2.834468 -2.74387,-2.942338 0,-0.2592 5.42934,-5.688542 5.68854,-5.688542 0.26066,0 5.68854,5.430097 5.68854,5.690883 0,0.259093 -5.43157,5.6862 -5.69088,5.6862 -0.10916,0 -1.4332,-1.235789 -2.94233,-2.746203 z m 35.91814,-11.971469 c -8.09448,-8.094715 -14.71722,-14.807392 -14.71722,-14.917062 0,-0.25912 5.43066,-5.687139 5.68991,-5.687139 0.25944,0 29.63196,29.37527 29.63196,29.634734 0,0.25912 -5.43067,5.687139 -5.68992,5.687139 -0.10862,0 -6.82025,-6.622957 -14.91473,-14.717672 z m 59.86102,11.971469 c -1.50913,-1.510414 -2.74387,-2.83509 -2.74387,-2.943714 0,-0.259437 29.37527,-29.631956 29.63473,-29.631956 0.25912,0 5.68714,5.430665 5.68714,5.689917 0,0.259437 -29.37527,29.631956 -29.63473,29.631956 -0.10967,0 -1.43414,-1.235789 -2.94327,-2.746203 z M 40.579298,-66.769977 c -1.50913,-1.510414 -2.74387,-2.834468 -2.74387,-2.942339 0,-0.259199 5.42934,-5.688541 5.68854,-5.688541 0.26067,0 5.68854,5.430096 5.68854,5.690883 0,0.259093 -5.43157,5.686199 -5.69087,5.686199 -0.10916,0 -1.43321,-1.235789 -2.94234,-2.746202 z m 47.88958,0 c -1.50913,-1.510414 -2.74387,-2.834468 -2.74387,-2.942339 0,-0.259199 5.42934,-5.688541 5.68854,-5.688541 0.26067,0 5.68854,5.430096 5.68854,5.690883 0,0.259093 -5.43157,5.686199 -5.69087,5.686199 -0.10916,0 -1.43321,-1.235789 -2.94234,-2.746202 z m 47.889592,0 c -1.50913,-1.510414 -2.74388,-2.83509 -2.74388,-2.943715 0,-0.258815 29.37494,-29.631956 29.63378,-29.631956 0.25854,0 29.63288,29.373868 29.63288,29.632393 0,0.259291 -5.42846,5.68948 -5.68766,5.68948 -0.10996,0 -4.96229,-4.764444 -10.78295,-10.587645 -5.82068,-5.823201 -10.75588,-10.674998 -10.96715,-10.78177 -0.21127,-0.106773 -0.49054,-0.194125 -0.62058,-0.194125 -0.13006,0 -0.27325,-0.05953 -0.31822,-0.132292 -0.045,-0.07276 -0.61051,-0.132291 -1.25677,-0.132291 -0.64626,0 -1.2118,0.05953 -1.25677,0.132291 -0.045,0.07276 -0.18816,0.132292 -0.31821,0.132292 -0.13004,0 -0.40931,0.08735 -0.62058,0.194125 -0.21127,0.106772 -5.14648,4.958569 -10.96715,10.78177 -5.82066,5.823201 -10.67299,10.587645 -10.78295,10.587645 -0.10996,0 -1.43466,-1.235789 -2.94379,-2.746202 z m 95.77916,0 c -1.50913,-1.510414 -2.74388,-2.834468 -2.74388,-2.942339 0,-0.259199 5.42935,-5.688541 5.68854,-5.688541 0.26067,0 5.68855,5.430096 5.68855,5.690883 0,0.259093 -5.43157,5.686199 -5.69089,5.686199 -0.10915,0 -1.43319,-1.235789 -2.94232,-2.746202 z m 47.88958,0 c -1.50913,-1.510414 -2.74388,-2.83509 -2.74388,-2.943715 0,-0.258815 29.37494,-29.631956 29.63379,-29.631956 0.25853,0 29.63288,29.373868 29.63288,29.632393 0,0.259291 -5.42847,5.68948 -5.68767,5.68948 -0.10996,0 -4.96229,-4.764444 -10.78295,-10.587645 -5.82067,-5.823201 -10.75588,-10.674998 -10.96715,-10.78177 -0.21127,-0.106773 -0.49054,-0.194125 -0.62058,-0.194125 -0.13005,0 -0.27325,-0.05953 -0.31821,-0.132292 -0.045,-0.07276 -0.61052,-0.132291 -1.25677,-0.132291 -0.64626,0 -1.21181,0.05953 -1.25677,0.132291 -0.045,0.07276 -0.18816,0.132292 -0.31822,0.132292 -0.13004,0 -0.40931,0.08735 -0.62058,0.194125 -0.21127,0.106772 -5.14648,4.958569 -10.96715,10.78177 -5.82066,5.823201 -10.67299,10.587645 -10.78295,10.587645 -0.10996,0 -1.43466,-1.235789 -2.94379,-2.746202 z m 131.6973,-11.97147 c -8.09448,-8.094715 -14.71722,-14.807392 -14.71722,-14.917062 0,-0.259119 5.43066,-5.687139 5.68991,-5.687139 0.25944,0 29.63196,29.375271 29.63196,29.634734 0,0.25912 -5.43067,5.687139 -5.68992,5.687139 -0.10862,0 -6.82025,-6.622957 -14.91473,-14.717672 z m 107.7506,11.97147 c -1.50913,-1.510414 -2.74387,-2.834468 -2.74387,-2.942339 0,-0.259199 5.42934,-5.688541 5.68854,-5.688541 0.26067,0 5.68854,5.430096 5.68854,5.690883 0,0.259093 -5.43156,5.686199 -5.69088,5.686199 -0.10916,0 -1.4332,-1.235789 -2.94233,-2.746202 z M 11.806608,-95.542686 4.2333483,-103.11682 v -5.72117 c 0,-4.49847 0.0354,-5.72119 0.16589,-5.72119 0.0912,0 2.96362,2.79995 6.3830697,6.2221 3.41945,3.42216 6.39004,6.30942 6.60131,6.41614 0.21127,0.10673 0.49053,0.19405 0.62058,0.19405 0.13005,0 0.27324,0.0595 0.31821,0.13229 0.045,0.0728 0.61052,0.13229 1.25677,0.13229 0.64626,0 1.2118,-0.0595 1.25677,-0.13229 0.045,-0.0728 0.18816,-0.13229 0.31821,-0.13229 0.13005,0 0.40931,-0.0874 0.62058,-0.19413 0.21127,-0.10677 5.14649,-4.95857 10.96715,-10.78177 5.82066,-5.8232 10.67299,-10.58764 10.78295,-10.58764 0.25948,0 5.68767,5.43033 5.68767,5.68991 0,0.25896 -29.37501,29.631955 -29.63398,29.631955 -0.10926,0 -3.60662,-3.408362 -7.77192,-7.574121 z m 52.71748,4.827918 c -1.50913,-1.510414 -2.74387,-2.835129 -2.74387,-2.943807 0,-0.108677 4.76444,-4.959945 10.58764,-10.780605 5.82321,-5.82067 10.675,-10.75588 10.78177,-10.96715 0.10677,-0.21127 0.19413,-0.49053 0.19413,-0.62058 0,-0.13005 0.0595,-0.27324 0.13229,-0.31821 0.0728,-0.045 0.13229,-0.61052 0.13229,-1.25677 0,-0.64626 -0.0595,-1.21181 -0.13229,-1.25677 -0.0728,-0.045 -0.13229,-0.18817 -0.13229,-0.31822 0,-0.13004 -0.0874,-0.4093 -0.19419,-0.62057 -0.1068,-0.21127 -10.34618,-10.53414 -22.75416,-22.93972 -12.40799,-12.40557 -22.55998,-22.64443 -22.55998,-22.75301 0,-0.25942 5.42818,-5.68985 5.68748,-5.68985 0.26039,0 53.57918,53.3181 53.57918,53.57848 0,0.26012 -29.3746,29.632985 -29.63473,29.632985 -0.10967,0 -1.43414,-1.235789 -2.94327,-2.746203 z m 47.889582,0 c -1.50913,-1.510414 -2.74387,-2.835129 -2.74387,-2.943807 0,-0.108677 4.76444,-4.959945 10.58764,-10.780605 5.82321,-5.82067 10.67501,-10.75588 10.78178,-10.96715 0.10676,-0.21127 0.19412,-0.49053 0.19412,-0.62058 0,-0.13005 0.0595,-0.27324 0.13229,-0.31821 0.0728,-0.045 0.13229,-0.61052 0.13229,-1.25677 0,-0.64626 -0.0595,-1.21181 -0.13229,-1.25677 -0.0728,-0.045 -0.13229,-0.18817 -0.13229,-0.31822 0,-0.13004 -0.0874,-0.4093 -0.19419,-0.62057 -0.1068,-0.21127 -10.34618,-10.53414 -22.75416,-22.93972 -12.407992,-12.40557 -22.559982,-22.64443 -22.559982,-22.75301 0,-0.25942 5.42818,-5.68985 5.68748,-5.68985 0.26039,0 53.579182,53.3181 53.579182,53.57848 0,0.26012 -29.37459,29.632985 -29.63473,29.632985 -0.10967,0 -1.43414,-1.235789 -2.94327,-2.746203 z m 95.77917,0 c -1.50913,-1.510414 -2.74388,-2.834468 -2.74388,-2.942338 0,-0.259199 5.42934,-5.688542 5.68854,-5.688542 0.26067,0 5.68855,5.430097 5.68855,5.690883 0,0.259093 -5.43157,5.6862 -5.69089,5.6862 -0.10915,0 -1.43319,-1.235789 -2.94232,-2.746203 z m 47.88958,0 c -1.50913,-1.510414 -2.74388,-2.834468 -2.74388,-2.942338 0,-0.259199 5.42935,-5.688542 5.68854,-5.688542 0.26067,0 5.68855,5.430097 5.68855,5.690883 0,0.259093 -5.43157,5.6862 -5.69089,5.6862 -0.10915,0 -1.43319,-1.235789 -2.94232,-2.746203 z m 95.77916,0 c -1.50913,-1.510414 -2.74387,-2.834468 -2.74387,-2.942338 0,-0.259199 5.42934,-5.688542 5.68854,-5.688542 0.26066,0 5.68854,5.430097 5.68854,5.690883 0,0.259093 -5.43157,5.6862 -5.69088,5.6862 -0.10916,0 -1.4332,-1.235789 -2.94233,-2.746203 z m 95.77916,0 c -1.50913,-1.510414 -2.74387,-2.834468 -2.74387,-2.942338 0,-0.259199 5.42934,-5.688542 5.68854,-5.688542 0.26067,0 5.68854,5.430097 5.68854,5.690883 0,0.259093 -5.43156,5.6862 -5.69088,5.6862 -0.10916,0 -1.4332,-1.235789 -2.94233,-2.746203 z m 47.88958,0 c -1.50913,-1.510414 -2.74387,-2.834468 -2.74387,-2.942338 0,-0.259199 5.42934,-5.688542 5.68854,-5.688542 0.26067,0 5.68854,5.430097 5.68854,5.690883 0,0.259093 -5.43156,5.6862 -5.69088,5.6862 -0.10916,0 -1.4332,-1.235789 -2.94233,-2.746203 z M 527.0166,-107.1181 c -5.65695,-5.65729 -10.28536,-10.37567 -10.28536,-10.48529 0,-0.25865 5.43052,-5.68704 5.68927,-5.68704 0.10827,0 3.57543,3.3782 7.70482,7.50711 l 7.50799,7.50712 v 5.72205 c 0,4.495303 -0.0355,5.722044 -0.16568,5.722044 -0.0911,0 -4.79409,-4.628694 -10.45104,-10.285994 z m -366.71229,-31.48523 c -14.67934,-14.67948 -26.68972,-26.77973 -26.68972,-26.88946 0,-0.25912 5.43057,-5.68724 5.68983,-5.68724 0.25946,0 53.57683,53.31995 53.57683,53.57944 0,0.25913 -5.43057,5.68724 -5.68982,5.68724 -0.10857,0 -12.20777,-12.01049 -26.88712,-26.68998 z m 71.83332,23.94377 c -1.50913,-1.51041 -2.74388,-2.83446 -2.74388,-2.94233 0,-0.25921 5.42935,-5.68854 5.68854,-5.68854 0.26067,0 5.68855,5.43009 5.68855,5.69087 0,0.2591 -5.43157,5.68621 -5.69089,5.68621 -0.10915,0 -1.43319,-1.23579 -2.94232,-2.74621 z m 35.91814,-11.97146 c -8.09448,-8.09472 -14.71723,-14.80698 -14.71723,-14.91612 0,-0.25854 29.37387,-29.63289 29.6324,-29.63289 0.25929,0 5.68948,5.42847 5.68948,5.68767 0,0.10996 -4.79421,4.99206 -10.65379,10.8491 -5.85959,5.85704 -10.74115,10.82203 -10.84792,11.0333 -0.10677,0.21127 -0.19413,0.49053 -0.19413,0.62058 0,0.13004 -0.0595,0.27324 -0.13229,0.31821 -0.0728,0.045 -0.13229,0.55098 -0.13229,1.12448 0,0.57349 0.0595,1.07951 0.13229,1.12448 0.0728,0.045 0.13229,0.18816 0.13229,0.31821 0,0.13005 0.0874,0.40931 0.19413,0.62057 0.10677,0.21127 4.98833,5.17627 10.84792,11.03331 5.85958,5.85705 10.65379,10.73914 10.65379,10.8491 0,0.25948 -5.43034,5.68767 -5.68992,5.68767 -0.10863,0 -6.82026,-6.62295 -14.91473,-14.71767 z m 47.88958,0 c -8.09448,-8.09472 -14.71723,-14.80741 -14.71723,-14.91708 0,-0.25917 5.4307,-5.68713 5.69001,-5.68713 0.10867,0 4.98971,4.7942 10.84676,10.65379 5.85704,5.85959 10.82202,10.74115 11.03329,10.84792 0.21127,0.10677 0.49054,0.19413 0.62058,0.19413 0.13006,0 0.27325,0.0595 0.31822,0.13229 0.045,0.0728 0.55098,0.13229 1.12448,0.13229 0.57349,0 1.07951,-0.0595 1.12448,-0.13229 0.045,-0.0728 0.18815,-0.13229 0.31821,-0.13229 0.13004,0 0.40931,-0.0874 0.62058,-0.19413 0.21127,-0.10677 5.17626,-4.98833 11.0333,-10.84792 5.85704,-5.85959 10.73873,-10.65379 10.84822,-10.65379 0.10948,0 4.99118,4.7942 10.84822,10.65379 5.85704,5.85959 10.82202,10.74115 11.03329,10.84792 0.21127,0.10677 0.49054,0.19413 0.62058,0.19413 0.13006,0 0.27325,0.0595 0.31822,0.13229 0.045,0.0728 0.55098,0.13229 1.12448,0.13229 0.57349,0 1.07951,-0.0595 1.12448,-0.13229 0.045,-0.0728 0.18815,-0.13229 0.31821,-0.13229 0.13004,0 0.40931,-0.0874 0.62058,-0.19413 0.21127,-0.10677 5.17626,-4.98833 11.0333,-10.84792 5.85704,-5.85959 10.73808,-10.65379 10.84675,-10.65379 0.2596,0 5.69001,5.4281 5.69001,5.68758 0,0.26041 -29.37346,29.6343 -29.63386,29.6343 -0.1092,0 -4.96089,-4.76444 -10.78155,-10.58765 -5.82067,-5.8232 -10.75588,-10.675 -10.96715,-10.78177 -0.21127,-0.10677 -0.49054,-0.19412 -0.62058,-0.19412 -0.13005,0 -0.27325,-0.0595 -0.31821,-0.13229 -0.045,-0.0728 -0.61052,-0.1323 -1.25677,-0.1323 -0.64626,0 -1.21181,0.0595 -1.25677,0.1323 -0.045,0.0728 -0.18816,0.13229 -0.31822,0.13229 -0.13004,0 -0.40931,0.0874 -0.62058,0.19412 -0.21127,0.10677 -5.14647,4.95857 -10.96715,10.78177 -5.82066,5.82321 -10.67255,10.58765 -10.78198,10.58765 -0.10945,0 -6.82173,-6.62295 -14.9162,-14.71767 z m 107.7506,11.97146 c -1.50913,-1.51041 -2.74387,-2.83446 -2.74387,-2.94233 0,-0.25921 5.42934,-5.68854 5.68854,-5.68854 0.26067,0 5.68854,5.43009 5.68854,5.69087 0,0.2591 -5.43157,5.68621 -5.69088,5.68621 -0.10916,0 -1.4332,-1.23579 -2.94233,-2.74621 z m 35.91814,-11.97146 c -8.09448,-8.09472 -14.71722,-14.80741 -14.71722,-14.91708 0,-0.25912 5.43066,-5.68713 5.68991,-5.68713 0.25944,0 29.63196,29.37527 29.63196,29.63474 0,0.25912 -5.43066,5.68714 -5.68992,5.68714 -0.10862,0 -6.82025,-6.62295 -14.91473,-14.71767 z m -455.3807417,0.26383 v -5.72259 l 3.378,-3.37246 c 3.2309197,-3.22563 3.7657497,-3.84729 3.7657497,-4.37718 0,-0.13005 0.0595,-0.27324 0.13229,-0.31821 0.17332,-0.10712 0.17332,-2.67101 0,-2.77813 -0.0728,-0.045 -0.13229,-0.18816 -0.13229,-0.31821 0,-0.52988 -0.53483,-1.15155 -3.7657497,-4.37717 l -3.378,-3.37246 v -5.72259 c 0,-4.49569 0.0355,-5.72259 0.16568,-5.72259 0.2378,0 20.8686897,20.66453 20.8686897,20.90272 0,0.23776 -20.6319197,20.90146 -20.8693197,20.90146 -0.12933,0 -0.16505,-1.23852 -0.16505,-5.72259 z M 208.19284,-138.60436 c -1.50913,-1.51041 -2.74388,-2.83446 -2.74388,-2.94233 0,-0.25921 5.42934,-5.68854 5.68854,-5.68854 0.26067,0 5.68855,5.43009 5.68855,5.69087 0,0.2591 -5.43157,5.68622 -5.69089,5.68622 -0.10915,0 -1.43319,-1.2358 -2.94232,-2.74622 z m 287.33748,0 c -1.50913,-1.51041 -2.74387,-2.83505 -2.74387,-2.94364 0,-0.23716 44.44465,-44.71327 44.68165,-44.71327 0.12956,0 0.16522,1.23526 0.16522,5.72178 v 5.72178 l -19.48012,19.47978 c -10.71406,10.71388 -19.56986,19.47979 -19.67956,19.47979 -0.1097,0 -1.43419,-1.2358 -2.94332,-2.74622 z M 172.2766,-174.52061 c -8.09447,-8.09472 -14.71722,-14.8074 -14.71722,-14.91707 0,-0.25879 5.43049,-5.68714 5.68939,-5.68714 0.10833,0 4.95961,4.76226 10.78062,10.58279 11.96598,11.96501 10.95683,11.11305 13.16332,11.11305 2.14724,0 1.71671,0.3319 8.96716,-6.91286 3.51309,-3.51035 6.47477,-6.55531 6.58151,-6.76658 0.10672,-0.21127 0.19404,-0.49053 0.19404,-0.62058 0,-0.13005 0.0595,-0.27324 0.13229,-0.31821 0.0738,-0.0456 0.13229,-0.66023 0.13229,-1.38906 0,-0.72884 -0.0585,-1.34348 -0.13229,-1.38907 -0.0728,-0.045 -0.13229,-0.18816 -0.13229,-0.31821 0,-0.13005 -0.0873,-0.40931 -0.19412,-0.62058 -0.10678,-0.21127 -4.92881,-5.11672 -10.71563,-10.901 -5.78682,-5.78428 -10.5215,-10.60684 -10.5215,-10.7168 0,-0.25949 5.43034,-5.68768 5.68992,-5.68768 0.25881,0 29.63196,29.37494 29.63196,29.63378 0,0.25943 -29.37434,29.63289 -29.63379,29.63289 -0.10914,0 -6.82118,-6.62295 -14.91566,-14.71767 z m 59.86103,11.97146 c -1.50913,-1.51041 -2.74388,-2.83446 -2.74388,-2.94233 0,-0.25921 5.42935,-5.68855 5.68854,-5.68855 0.26067,0 5.68855,5.4301 5.68855,5.69088 0,0.2591 -5.43157,5.68621 -5.69089,5.68621 -0.10915,0 -1.43319,-1.2358 -2.94232,-2.74621 z m 75.90337,-19.87991 c -12.44195,-12.44437 -22.79458,-22.71351 -23.00585,-22.82032 -0.21127,-0.1068 -0.49054,-0.19419 -0.62058,-0.19419 -0.13006,0 -0.27325,-0.0595 -0.31822,-0.13229 -0.10662,-0.17252 -2.14233,-0.17252 -2.24895,0 -0.045,0.0728 -0.18816,0.13229 -0.31822,0.13229 -0.13004,0 -0.40931,0.0874 -0.62058,0.19413 -0.21127,0.10677 -5.17625,4.98833 -11.03329,10.84792 -5.85705,5.85958 -10.73809,10.65379 -10.84676,10.65379 -0.25959,0 -5.69001,-5.42811 -5.69001,-5.68759 0,-0.26029 29.3734,-29.63429 29.63368,-29.63429 0.26008,0 53.57778,53.31933 53.57778,53.57943 0,0.25914 -5.43059,5.68724 -5.68984,5.68724 -0.10859,0 -10.37721,-10.18176 -22.81916,-22.62612 z m 55.79393,7.90845 c -8.09448,-8.09472 -14.71722,-14.80701 -14.71722,-14.9162 0,-0.10919 4.76444,-4.96088 10.58764,-10.78154 5.8232,-5.82067 10.675,-10.75589 10.78177,-10.96715 0.10677,-0.21127 0.19413,-0.49053 0.19413,-0.62058 0,-0.13005 0.0595,-0.27325 0.13229,-0.31821 0.0728,-0.045 0.13229,-0.61052 0.13229,-1.25677 0,-0.64626 -0.0595,-1.21181 -0.13229,-1.25678 -0.0728,-0.045 -0.13229,-0.18816 -0.13229,-0.31821 0,-0.13005 -0.0874,-0.40931 -0.19413,-0.62057 -0.10677,-0.21127 -4.95857,-5.14649 -10.78177,-10.96716 -5.8232,-5.82066 -10.58764,-10.67156 -10.58764,-10.77978 0,-0.10822 0.69856,-0.89715 1.55236,-1.75317 l 1.55235,-1.55642 h 2.582 2.582 l 13.52657,13.52707 c 7.43962,7.43988 13.52659,13.61639 13.52659,13.72556 0,0.10918 -4.79421,4.99064 -10.65379,10.84768 -5.85958,5.85704 -10.74115,10.82203 -10.84792,11.0333 -0.10677,0.21127 -0.19412,0.49053 -0.19412,0.62057 0,0.13005 -0.0595,0.27325 -0.1323,0.31822 -0.0728,0.045 -0.13229,0.55098 -0.13229,1.12448 0,0.57349 0.0595,1.07951 0.13229,1.12447 0.0728,0.045 0.1323,0.18817 0.1323,0.31822 0,0.13004 0.0873,0.4093 0.19406,0.62057 0.10671,0.21127 3.12793,3.31577 6.7138,6.89888 7.39894,7.39328 6.9493,7.04515 9.09943,7.04515 2.20649,0 1.19734,0.85196 13.16332,-11.11305 5.82101,-5.82053 10.6729,-10.58279 10.782,-10.58279 0.25848,0 29.6328,29.37392 29.6328,29.6324 0,0.25929 -5.42847,5.68948 -5.68767,5.68948 -0.10996,0 -4.96229,-4.76444 -10.78295,-10.58765 -5.82067,-5.8232 -10.75588,-10.675 -10.96715,-10.78177 -0.21127,-0.10677 -0.49053,-0.19412 -0.62058,-0.19412 -0.13005,0 -0.27325,-0.0595 -0.31821,-0.13229 -0.10666,-0.17258 -2.40689,-0.17258 -2.51354,0 -0.045,0.0728 -0.18816,0.13229 -0.31822,0.13229 -0.13004,0 -0.40931,0.0874 -0.62058,0.19412 -0.21127,0.10677 -5.14647,4.95857 -10.96715,10.78177 -5.82066,5.82321 -10.67255,10.58765 -10.78198,10.58765 -0.10945,0 -6.82173,-6.62295 -14.9162,-14.71767 z m 95.77916,0 c -8.09448,-8.09472 -14.71722,-14.8074 -14.71722,-14.91707 0,-0.25879 5.43049,-5.68714 5.68939,-5.68714 0.10833,0 4.95961,4.76226 10.78061,10.58279 11.96598,11.96501 10.95684,11.11305 13.16333,11.11305 2.20649,0 1.19734,0.85196 13.16332,-11.11305 5.82101,-5.82053 10.67333,-10.58279 10.78295,-10.58279 0.25907,0 5.68706,5.43073 5.68706,5.68992 0,0.25882 -29.37494,29.63196 -29.63378,29.63196 -0.10914,0 -6.82118,-6.62295 -14.91566,-14.71767 z M 16.568388,-186.56006 c -1.54552,-1.54678 -2.81004,-2.90164 -2.81004,-3.01082 0,-0.25909 5.43154,-5.68623 5.69085,-5.68623 0.2591,0 5.81852,5.56383 5.81852,5.82315 0,0.25909 -5.43154,5.68623 -5.69085,5.68623 -0.10914,0 -1.46295,-1.26555 -3.00848,-2.81233 z m 47.9557,0.0661 c -1.50913,-1.51041 -2.74387,-2.83446 -2.74387,-2.94233 0,-0.25921 5.42934,-5.68855 5.68854,-5.68855 0.26067,0 5.68854,5.4301 5.68854,5.69088 0,0.2591 -5.43157,5.68621 -5.69087,5.68621 -0.10916,0 -1.43321,-1.2358 -2.94234,-2.74621 z m 47.889582,0 c -1.50913,-1.51041 -2.74387,-2.83508 -2.74387,-2.94371 0,-0.25944 29.37527,-29.63196 29.63473,-29.63196 0.25912,0 5.68714,5.43067 5.68714,5.68992 0,0.25944 -29.37526,29.63196 -29.63473,29.63196 -0.10967,0 -1.43414,-1.2358 -2.94327,-2.74621 z m -71.900492,-24.01091 c -1.54552,-1.54678 -2.81004,-2.90122 -2.81004,-3.00988 0,-0.10865 6.05741,-6.25475 13.46092,-13.65798 l 13.46091,-13.46044 h 2.71381 2.7138 l 1.55236,1.55642 c 0.8538,0.85602 1.55236,1.64491 1.55236,1.75308 0,0.25888 -29.3758,29.63113 -29.6347,29.63113 -0.10966,0 -1.46389,-1.26555 -3.00942,-2.81233 z m 47.9557,0.0661 c -1.50913,-1.51041 -2.74387,-2.83446 -2.74387,-2.94233 0,-0.25921 5.42934,-5.68855 5.68854,-5.68855 0.26067,0 5.68854,5.4301 5.68854,5.69088 0,0.2591 -5.43157,5.68621 -5.69087,5.68621 -0.10916,0 -1.43321,-1.2358 -2.94234,-2.74621 z m 131.697302,-11.97146 c -8.09447,-8.09472 -14.71722,-14.8078 -14.71722,-14.91795 0,-0.11016 0.70039,-0.89885 1.55641,-1.75265 l 1.55642,-1.55236 h 2.57794 2.57795 l 13.52657,13.52707 c 7.43962,7.43988 13.52659,13.61678 13.52659,13.72644 0,0.25911 -5.43068,5.68712 -5.68992,5.68712 -0.10863,0 -6.82026,-6.62295 -14.91474,-14.71767 z m 95.77917,0 c -8.09448,-8.09472 -14.71723,-14.8078 -14.71723,-14.91795 0,-0.11016 0.7004,-0.89885 1.55642,-1.75265 l 1.55641,-1.55236 h 2.57794 2.57795 l 13.52657,13.52707 c 7.43962,7.43988 13.52659,13.61678 13.52659,13.72644 0,0.25911 -5.43068,5.68712 -5.68992,5.68712 -0.10862,0 -6.82026,-6.62295 -14.91473,-14.71767 z m 95.77916,0 c -8.09448,-8.09472 -14.71722,-14.8078 -14.71722,-14.91795 0,-0.11016 0.70039,-0.89885 1.55641,-1.75265 l 1.55641,-1.55236 h 2.57794 2.57795 l 13.52658,13.52707 c 7.43962,7.43988 13.52658,13.61678 13.52658,13.72644 0,0.25911 -5.43068,5.68712 -5.68992,5.68712 -0.10862,0 -6.82025,-6.62295 -14.91473,-14.71767 z m 59.86102,11.97146 c -1.50913,-1.51041 -2.74387,-2.83446 -2.74387,-2.94233 0,-0.25921 5.42934,-5.68855 5.68854,-5.68855 0.26067,0 5.68854,5.4301 5.68854,5.69088 0,0.2591 -5.43156,5.68621 -5.69088,5.68621 -0.10916,0 -1.4332,-1.2358 -2.94233,-2.74621 z m 47.88958,0 c -1.50913,-1.51041 -2.74387,-2.83446 -2.74387,-2.94233 0,-0.25921 5.42934,-5.68855 5.68854,-5.68855 0.26067,0 5.68854,5.4301 5.68854,5.69088 0,0.2591 -5.43156,5.68621 -5.69088,5.68621 -0.10916,0 -1.4332,-1.2358 -2.94233,-2.74621 z M 4.2333483,-222.2782 v -5.85443 l 6.2512997,-6.25026 6.25129,-6.25026 h 2.71353 2.71353 l 1.55236,1.55642 c 0.8538,0.85602 1.55236,1.64496 1.55236,1.75318 0,0.23666 -20.6329997,20.89978 -20.8693197,20.89978 -0.12939,0 -0.16505,-1.26502 -0.16505,-5.85443 z M 112.41367,-234.38352 c -1.50913,-1.51041 -2.74387,-2.83591 -2.74387,-2.94556 0,-0.10964 0.70039,-0.89791 1.55641,-1.75171 l 1.55642,-1.55236 h 2.57571 2.57572 l 1.55641,1.55236 c 0.85603,0.8538 1.55641,1.64312 1.55641,1.75405 0,0.26127 -5.42954,5.68943 -5.69087,5.68943 -0.10916,0 -1.43321,-1.2358 -2.94234,-2.74621 z m 47.88959,0 c -1.50913,-1.51041 -2.74388,-2.83591 -2.74388,-2.94556 0,-0.10964 0.70039,-0.89791 1.55641,-1.75171 l 1.55641,-1.55236 h 2.57572 2.57572 l 1.55641,1.55236 c 0.85602,0.8538 1.55641,1.64312 1.55641,1.75405 0,0.26127 -5.42954,5.68943 -5.69088,5.68943 -0.10915,0 -1.43319,-1.2358 -2.94232,-2.74621 z m 95.77916,0 c -1.50913,-1.51041 -2.74388,-2.83591 -2.74388,-2.94556 0,-0.10964 0.7004,-0.89791 1.55641,-1.75171 l 1.55642,-1.55236 h 2.57571 2.57572 l 1.55641,1.55236 c 0.85602,0.8538 1.55642,1.64312 1.55642,1.75405 0,0.26127 -5.42954,5.68943 -5.69089,5.68943 -0.10915,0 -1.43319,-1.2358 -2.94232,-2.74621 z m 189.97125,-1.58709 c -2.3825,-2.38331 -4.3318,-4.40737 -4.3318,-4.49791 0,-0.12877 1.24584,-0.16463 5.71963,-0.16463 h 5.71963 l 1.55641,1.55236 c 0.85602,0.8538 1.55641,1.64312 1.55641,1.75405 0,0.261 -5.4294,5.68943 -5.69045,5.68943 -0.10891,0 -2.14734,-1.94999 -4.52983,-4.3333 z m 49.47665,1.58709 c -1.50913,-1.51041 -2.74387,-2.83591 -2.74387,-2.94556 0,-0.10964 0.70039,-0.89791 1.55641,-1.75171 l 1.55641,-1.55236 h 2.57572 2.57572 l 1.55641,1.55236 c 0.85602,0.8538 1.55641,1.64312 1.55641,1.75405 0,0.26127 -5.42954,5.68943 -5.69088,5.68943 -0.10916,0 -1.4332,-1.2358 -2.94233,-2.74621 z"
       id="path4678"
       inkscape:connector-curvature="0" />
  </g>
</svg>
