<?xml version='1.0' encoding='ascii'?>
<svg xmlns="http://www.w3.org/2000/svg" height="2048" version="1.1" width="2048">
    <g id="RenderLayer_LineSet">
        <g id="strokes">
            <path d=" M 1031.136, 57.371 1026.785, 57.078 1022.435, 57.371 1018.262, 58.223 1014.306, 59.598 1010.603, 61.455 1007.193, 63.758 1004.114, 66.468 1001.403, 69.547 999.100, 72.956 997.242, 76.658 995.867, 80.614 995.015, 84.786 994.722, 89.135 994.722, 90.415 994.722, 94.032 994.722, 99.654 994.722, 106.945 994.722, 115.572 994.722, 125.200 994.722, 135.200 994.722, 135.496 994.722, 145.496 994.722, 146.127 994.722, 156.127 994.722, 156.757 994.722, 166.757 994.722, 167.054 994.722, 176.682 994.722, 185.309 986.653, 179.402 978.584, 173.495 970.515, 167.588 962.446, 161.680 954.378, 155.773 946.309, 149.866 938.240, 143.959 930.171, 138.052 922.102, 132.145 915.910, 127.612 912.228, 125.232 908.323, 123.409 904.253, 122.135 900.079, 121.401 895.860, 121.199 891.656, 121.522 887.527, 122.360 883.532, 123.707 879.731, 125.554 876.184, 127.893 872.950, 130.715 870.090, 134.013 867.740, 137.670 865.993, 141.520 864.832, 145.510 864.239, 149.587 864.198, 153.697 864.690, 157.786 865.700, 161.801 867.208, 165.688 869.199, 169.395 871.655, 172.867 874.558, 176.050 877.891, 178.892 879.446, 180.044 883.841, 183.300 890.669, 188.360 898.704, 194.313 899.526, 194.922 907.561, 200.875 910.006, 202.686 918.041, 208.640 921.703, 211.352 929.737, 217.306 934.210, 220.620 942.245, 226.573 947.124, 230.187 955.159, 236.140 960.038, 239.755 968.073, 245.708 972.546, 249.022 980.581, 254.975 984.242, 257.688 992.277, 263.641 994.722, 265.453 994.722, 275.453 994.722, 285.453 994.722, 295.453 994.722, 305.453 994.722, 315.453 994.722, 325.453 994.722, 335.453 994.722, 345.453 994.722, 355.453 994.722, 365.453 994.722, 375.453 994.722, 385.453 994.722, 395.453 994.722, 405.453 994.722, 415.453 994.722, 425.453 994.722, 435.453 994.722, 445.453 994.722, 455.453 994.722, 465.453 994.722, 475.453 994.722, 485.453 994.722, 495.453 994.722, 505.891 986.695, 499.927 978.669, 493.962 970.642, 487.998 962.616, 482.034 954.589, 476.069 946.563, 470.105 938.536, 464.140 930.509, 458.176 922.483, 452.211 914.456, 446.247 906.430, 440.282 898.403, 434.318 890.377, 428.354 882.350, 422.389 874.324, 416.425 866.297, 410.460 858.271, 404.496 850.244, 398.531 842.217, 392.567 834.191, 386.603 826.164, 380.638 818.138, 374.674 810.111, 368.709 802.085, 362.745 794.058, 356.780 787.652, 352.020 783.974, 349.641 780.071, 347.818 776.004, 346.543 771.831, 345.809 767.613, 345.607 763.409, 345.930 759.280, 346.769 755.284, 348.116 751.482, 349.963 747.932, 352.301 744.696, 355.124 741.832, 358.422 739.482, 362.078 737.735, 365.928 736.574, 369.918 735.981, 373.995 735.940, 378.105 736.433, 382.194 737.442, 386.209 738.951, 390.097 740.941, 393.803 743.397, 397.275 746.300, 400.459 749.633, 403.301 752.895, 405.733 760.912, 411.710 762.114, 412.606 770.131, 418.584 776.440, 423.287 784.457, 429.265 792.474, 435.242 795.020, 437.140 803.037, 443.118 811.054, 449.095 817.004, 453.531 825.021, 459.509 833.038, 465.486 841.055, 471.463 841.541, 471.826 849.558, 477.803 857.575, 483.781 865.592, 489.758 867.781, 491.390 875.798, 497.367 883.815, 503.344 891.831, 509.322 894.871, 511.588 902.888, 517.565 910.905, 523.542 918.922, 529.520 921.961, 531.786 929.978, 537.763 937.995, 543.740 946.012, 549.718 948.200, 551.349 956.217, 557.327 964.234, 563.304 972.251, 569.281 972.738, 569.644 980.755, 575.621 988.772, 581.599 994.722, 586.035 994.722, 596.035 994.722, 606.035 994.722, 616.035 994.722, 626.035 994.722, 636.035 994.722, 646.035 994.722, 656.035 994.722, 666.035 994.722, 676.035 994.722, 686.035 994.722, 696.035 994.722, 699.160 986.627, 693.288 978.533, 687.416 970.438, 681.544 962.344, 675.673 954.249, 669.801 946.154, 663.929 938.060, 658.057 929.965, 652.185 921.871, 646.314 913.776, 640.442 905.682, 634.570 897.587, 628.698 889.492, 622.827 881.398, 616.955 873.303, 611.083 865.209, 605.211 857.114, 599.339 849.020, 593.468 840.925, 587.596 832.830, 581.724 824.736, 575.852 816.641, 569.980 808.547, 564.109 800.452, 558.237 792.358, 552.365 787.352, 548.734 784.701, 547.001 781.895, 545.551 778.961, 544.385 775.927, 543.505 772.822, 542.911 769.674, 542.604 766.511, 542.585 763.360, 542.855 760.250, 543.414 757.208, 544.265 754.264, 545.406 751.444, 546.840 748.785, 548.549 746.319, 550.484 744.059, 552.627 742.019, 554.958 740.210, 557.458 738.647, 560.107 737.341, 562.887 736.306, 565.778 735.555, 568.761 735.100, 571.817 734.955, 574.927 735.132, 578.071 735.493, 581.417 736.513, 590.873 737.586, 600.816 738.098, 605.567 739.170, 615.510 740.154, 624.626 741.226, 634.568 742.298, 644.510 742.586, 647.176 743.658, 657.118 744.731, 667.060 745.300, 672.345 746.373, 682.287 747.445, 692.229 748.203, 699.259 749.276, 709.202 750.348, 719.144 751.200, 727.047 752.273, 736.989 753.345, 746.932 754.198, 754.834 755.270, 764.777 756.342, 774.719 757.100, 781.749 758.173, 791.691 759.245, 801.634 759.815, 806.918 760.887, 816.860 761.960, 826.803 762.247, 829.468 753.584, 824.473 744.920, 819.479 736.257, 814.484 727.594, 809.490 718.930, 804.495 710.267, 799.501 701.604, 794.506 692.940, 789.511 684.277, 784.517 675.613, 779.522 666.950, 774.528 664.110, 772.891 662.912, 762.963 661.714, 753.035 660.517, 743.107 659.319, 733.179 658.121, 723.251 656.923, 713.323 655.725, 703.395 654.527, 693.467 653.329, 683.539 652.131, 673.611 650.934, 663.683 649.736, 653.755 648.538, 643.827 647.340, 633.899 646.142, 623.971 644.944, 614.043 643.746, 604.115 642.548, 594.187 641.350, 584.259 640.153, 574.331 638.955, 564.403 637.757, 554.475 636.559, 544.547 635.361, 534.619 634.163, 524.691 632.965, 514.763 631.767, 504.835 630.569, 494.907 629.372, 484.979 627.842, 472.302 627.030, 468.016 625.683, 463.977 623.843, 460.218 621.552, 456.771 618.855, 453.667 615.792, 450.941 612.407, 448.624 608.743, 446.749 604.842, 445.347 600.747, 444.453 596.500, 444.097 592.145, 444.314 587.860, 445.123 583.817, 446.467 580.052, 448.304 576.596, 450.590 573.484, 453.284 570.749, 456.342 568.424, 459.723 566.545, 463.383 565.143, 467.281 564.252, 471.374 563.907, 475.618 564.140, 479.973 564.545, 483.339 565.690, 492.850 566.886, 502.778 567.470, 507.628 568.665, 517.557 569.778, 526.797 570.974, 536.725 572.169, 546.653 572.509, 549.477 573.705, 559.405 574.900, 569.333 575.557, 574.791 576.753, 584.719 577.949, 594.647 578.817, 601.861 580.013, 611.789 581.208, 621.717 582.183, 629.809 583.378, 639.737 584.574, 649.665 585.548, 657.756 586.744, 667.685 587.939, 677.613 588.808, 684.826 590.003, 694.755 591.199, 704.683 591.856, 710.140 593.052, 720.069 594.247, 729.997 594.587, 732.821 585.927, 727.821 577.267, 722.821 568.606, 717.821 559.946, 712.821 551.286, 707.821 542.625, 702.821 536.856, 699.490 528.086, 694.684 519.317, 689.878 510.548, 685.072 501.778, 680.266 493.009, 675.460 484.240, 670.654 475.470, 665.848 466.701, 661.042 457.931, 656.236 449.162, 651.430 440.393, 646.624 431.623, 641.818 422.854, 637.011 414.085, 632.205 405.315, 627.399 396.546, 622.593 386.879, 617.295 385.682, 607.367 384.485, 597.439 383.289, 587.511 382.092, 577.583 380.895, 567.655 379.699, 557.727 378.502, 547.798 377.305, 537.870 376.108, 527.942 374.912, 518.014 373.715, 508.086 372.518, 498.158 371.321, 488.230 370.125, 478.302 369.263, 471.156 368.455, 466.875 367.108, 462.843 365.265, 459.092 362.971, 455.652 360.268, 452.557 357.202, 449.836 353.814, 447.523 350.150, 445.648 346.252, 444.243 342.165, 443.341 337.932, 442.972 333.596, 443.168 329.311, 443.977 325.270, 445.321 321.505, 447.158 318.051, 449.444 314.941, 452.138 312.207, 455.196 309.885, 458.577 308.006, 462.237 306.605, 466.135 305.715, 470.228 305.370, 474.473 305.602, 478.827 305.764, 480.166 306.219, 483.949 306.928, 489.827 307.846, 497.451 308.933, 506.472 310.130, 516.401 310.147, 516.541 311.343, 526.469 311.444, 527.308 312.640, 537.236 312.783, 538.424 313.980, 548.352 314.123, 549.540 315.319, 559.468 315.420, 560.307 316.617, 570.235 316.634, 570.376 317.720, 579.397 308.951, 574.591 300.182, 569.784 291.413, 564.978 282.643, 560.172 273.874, 555.365 265.105, 550.559 256.336, 545.753 247.566, 540.947 241.471, 537.606 237.511, 535.767 233.440, 534.505 229.309, 533.805 225.169, 533.652 221.073, 534.031 217.072, 534.928 213.217, 536.326 209.560, 538.210 206.154, 540.567 203.048, 543.380 200.295, 546.634 197.947, 550.315 196.111, 554.268 194.853, 558.334 194.156, 562.462 194.006, 566.599 194.387, 570.695 195.285, 574.698 196.684, 578.554 198.568, 582.212 200.923, 585.621 203.734, 588.728 206.984, 591.482 210.659, 593.830 211.584, 594.337 214.198, 595.770 218.260, 597.996 223.528, 600.883 229.761, 604.300 236.718, 608.113 244.157, 612.190 251.838, 616.400 259.519, 620.610 266.958, 624.688 273.915, 628.500 280.148, 631.917 270.952, 635.844 261.755, 639.772 252.559, 643.699 243.362, 647.627 234.166, 651.554 224.969, 655.482 215.773, 659.409 206.577, 663.336 196.587, 667.603 192.697, 669.579 189.192, 672.001 186.091, 674.818 183.414, 677.979 181.182, 681.435 179.415, 685.135 178.132, 689.030 177.354, 693.069 177.101, 697.202 177.393, 701.379 178.250, 705.549 179.693, 709.664 181.127, 712.606 182.817, 715.336 184.742, 717.847 186.880, 720.130 189.212, 722.176 191.716, 723.976 194.372, 725.523 197.158, 726.807 200.054, 727.821 203.038, 728.556 206.091, 729.003 209.190, 729.154 210.241, 729.136 211.294, 729.083 212.348, 728.994 213.403, 728.870 214.458, 728.709 215.512, 728.512 216.563, 728.278 217.612, 728.008 218.658, 727.701 219.698, 727.356 220.734, 726.974 221.763, 726.554 223.492, 725.816 228.377, 723.730 235.968, 720.489 245.165, 716.562 245.814, 716.285 255.010, 712.358 257.463, 711.311 266.660, 707.384 270.465, 705.759 279.662, 701.832 284.370, 699.822 293.566, 695.895 298.725, 693.693 307.922, 689.766 313.080, 687.563 322.277, 683.636 326.984, 681.626 336.181, 677.699 339.987, 676.074 349.184, 672.147 351.636, 671.100 360.406, 675.906 369.175, 680.712 377.944, 685.519 386.714, 690.325 395.483, 695.131 404.252, 699.937 413.022, 704.743 421.791, 709.549 430.560, 714.355 439.330, 719.161 448.099, 723.968 456.868, 728.774 465.638, 733.580 474.407, 738.386 483.176, 743.192 491.946, 747.998 500.715, 752.804 505.401, 755.373 514.062, 760.372 522.723, 765.371 531.383, 770.370 540.044, 775.369 548.705, 780.368 557.366, 785.367 564.376, 789.413 555.180, 793.341 545.984, 797.268 536.787, 801.196 527.591, 805.124 518.395, 809.052 509.198, 812.979 500.002, 816.907 490.805, 820.835 481.609, 824.763 472.413, 828.690 463.216, 832.618 454.020, 836.546 444.824, 840.473 435.627, 844.401 426.431, 848.329 417.235, 852.257 408.038, 856.184 398.842, 860.112 389.646, 864.040 380.449, 867.968 371.253, 871.895 362.056, 875.823 352.860, 879.751 343.664, 883.678 334.467, 887.606 326.836, 890.865 322.951, 892.842 319.449, 895.264 316.351, 898.080 313.676, 901.241 311.445, 904.697 309.679, 908.398 308.397, 912.294 307.619, 916.334 307.366, 920.469 307.658, 924.649 308.515, 928.823 309.957, 932.941 311.391, 935.880 313.081, 938.608 315.006, 941.116 317.145, 943.396 319.477, 945.440 321.981, 947.239 324.636, 948.784 327.422, 950.068 330.318, 951.081 333.303, 951.815 336.355, 952.262 339.454, 952.413 340.505, 952.395 341.558, 952.342 342.613, 952.253 343.668, 952.129 344.724, 951.968 345.778, 951.771 346.831, 951.537 347.881, 951.267 348.928, 950.959 349.971, 950.615 351.010, 950.233 352.042, 949.813 355.792, 948.212 364.989, 944.284 366.390, 943.685 375.587, 939.758 382.858, 936.652 392.054, 932.724 401.251, 928.797 404.217, 927.530 413.414, 923.602 422.610, 919.674 429.489, 916.736 438.686, 912.809 447.882, 908.881 457.078, 904.953 457.696, 904.689 466.893, 900.762 476.089, 896.834 485.286, 892.906 487.860, 891.807 497.056, 887.879 506.253, 883.951 515.449, 880.024 519.002, 878.506 528.198, 874.579 537.395, 870.651 546.591, 866.723 550.144, 865.206 559.340, 861.278 568.536, 857.351 577.733, 853.423 580.307, 852.323 589.504, 848.396 598.700, 844.468 607.896, 840.540 608.514, 840.276 617.711, 836.349 626.907, 832.421 633.786, 829.483 642.447, 834.482 651.108, 839.482 659.768, 844.481 668.429, 849.480 677.090, 854.479 685.750, 859.479 694.411, 864.478 703.072, 869.477 711.732, 874.477 720.393, 879.476 729.054, 884.475 731.754, 886.034 722.604, 890.068 713.454, 894.102 704.303, 898.135 695.153, 902.169 686.003, 906.203 676.852, 910.237 667.702, 914.271 658.552, 918.304 649.401, 922.338 640.251, 926.372 631.101, 930.406 621.950, 934.439 612.800, 938.473 603.650, 942.507 594.499, 946.541 585.349, 950.574 576.199, 954.608 567.048, 958.642 557.898, 962.676 548.748, 966.710 539.597, 970.743 530.447, 974.777 521.297, 978.811 512.146, 982.845 502.996, 986.879 497.100, 989.478 494.280, 990.888 491.644, 992.546 489.203, 994.434 486.969, 996.534 484.955, 998.828 483.171, 1001.298 481.629, 1003.927 480.342, 1006.695 479.320, 1009.586 478.576, 1012.580 478.121, 1015.661 477.967, 1018.811 478.121, 1021.960 478.576, 1025.041 479.320, 1028.036 480.342, 1030.927 481.629, 1033.696 483.171, 1036.324 484.955, 1038.795 486.969, 1041.089 489.203, 1043.189 491.644, 1045.077 494.280, 1046.734 497.100, 1048.144 500.178, 1049.500 508.877, 1053.335 518.028, 1057.369 522.394, 1059.293 531.544, 1063.327 539.925, 1067.022 549.076, 1071.055 558.226, 1075.089 560.668, 1076.166 569.819, 1080.199 578.969, 1084.233 583.820, 1086.371 592.971, 1090.405 602.121, 1094.439 608.578, 1097.285 617.729, 1101.319 626.879, 1105.353 634.139, 1108.553 643.290, 1112.587 652.440, 1116.620 659.700, 1119.821 668.851, 1123.854 678.001, 1127.888 684.458, 1130.734 693.609, 1134.768 702.759, 1138.802 707.611, 1140.940 716.761, 1144.974 725.911, 1149.008 728.354, 1150.084 719.693, 1155.084 711.032, 1160.083 702.372, 1165.082 693.711, 1170.082 685.050, 1175.081 676.390, 1180.080 667.729, 1185.079 659.068, 1190.079 650.408, 1195.078 641.747, 1200.077 633.087, 1205.077 630.341, 1206.662 621.144, 1202.734 611.948, 1198.807 602.751, 1194.880 593.555, 1190.953 584.358, 1187.026 575.161, 1183.098 565.965, 1179.171 556.768, 1175.244 547.572, 1171.317 538.375, 1167.389 529.179, 1163.462 519.982, 1159.535 510.785, 1155.608 501.589, 1151.680 492.392, 1147.753 483.196, 1143.826 473.999, 1139.899 464.803, 1135.971 455.606, 1132.044 446.409, 1128.117 437.213, 1124.190 428.016, 1120.263 418.820, 1116.335 409.623, 1112.408 400.427, 1108.481 391.230, 1104.554 382.033, 1100.626 372.837, 1096.699 363.640, 1092.772 352.042, 1087.819 347.916, 1086.377 343.737, 1085.520 339.555, 1085.228 335.418, 1085.480 331.378, 1086.258 327.483, 1087.539 323.783, 1089.305 320.329, 1091.535 317.169, 1094.209 314.354, 1097.307 311.934, 1100.809 309.957, 1104.695 308.515, 1108.813 307.658, 1112.987 307.366, 1117.167 307.619, 1121.302 308.397, 1125.342 309.679, 1129.238 311.445, 1132.939 313.676, 1136.395 316.351, 1139.556 319.449, 1142.373 322.951, 1144.794 326.836, 1146.771 329.952, 1148.101 338.757, 1151.862 347.954, 1155.790 352.439, 1157.706 361.636, 1161.633 370.185, 1165.285 379.381, 1169.213 388.578, 1173.140 391.182, 1174.253 400.378, 1178.180 409.575, 1182.108 414.617, 1184.262 423.814, 1188.189 433.010, 1192.117 439.678, 1194.965 448.875, 1198.893 458.071, 1202.821 465.552, 1206.016 474.749, 1209.943 483.945, 1213.871 491.426, 1217.066 500.622, 1220.994 509.819, 1224.922 516.487, 1227.770 525.683, 1231.698 534.880, 1235.625 539.922, 1237.779 549.119, 1241.707 558.315, 1245.634 560.919, 1246.747 552.259, 1251.746 543.598, 1256.745 534.937, 1261.744 526.276, 1266.743 517.616, 1271.742 508.955, 1276.742 500.294, 1281.741 491.633, 1286.740 482.973, 1291.739 474.312, 1296.738 465.651, 1301.737 456.990, 1306.737 448.330, 1311.736 439.669, 1316.735 431.008, 1321.734 422.348, 1326.733 413.687, 1331.732 405.026, 1336.732 396.365, 1341.731 387.705, 1346.730 379.044, 1351.729 370.383, 1356.728 361.722, 1361.727 352.644, 1366.968 343.447, 1363.041 334.250, 1359.114 325.054, 1355.187 315.857, 1351.260 306.660, 1347.333 297.464, 1343.406 288.267, 1339.479 279.070, 1335.552 269.874, 1331.625 260.677, 1327.698 251.480, 1323.771 242.284, 1319.844 233.087, 1315.917 223.890, 1311.990 221.763, 1311.082 217.640, 1309.644 213.463, 1308.790 209.282, 1308.502 205.146, 1308.758 201.106, 1309.538 197.211, 1310.822 193.511, 1312.590 190.057, 1314.821 186.898, 1317.495 184.085, 1320.592 181.666, 1324.091 179.693, 1327.972 178.251, 1332.087 177.394, 1336.258 177.102, 1340.434 177.355, 1344.567 178.133, 1348.606 179.416, 1352.501 181.184, 1356.201 183.416, 1359.657 186.092, 1362.818 189.193, 1365.635 192.698, 1368.057 196.587, 1370.034 197.740, 1370.526 201.000, 1371.918 206.064, 1374.081 212.633, 1376.886 220.405, 1380.206 229.079, 1383.910 238.356, 1387.872 247.552, 1391.799 247.933, 1391.962 257.129, 1395.890 257.510, 1396.052 266.787, 1400.014 275.461, 1403.719 283.233, 1407.038 274.573, 1412.037 265.912, 1417.037 257.251, 1422.036 248.591, 1427.035 239.930, 1432.034 231.269, 1437.034 222.609, 1442.033 213.948, 1447.032 205.287, 1452.032 202.317, 1453.746 198.694, 1456.176 195.506, 1459.001 192.766, 1462.170 190.489, 1465.629 188.687, 1469.328 187.376, 1473.214 186.568, 1477.235 186.279, 1481.339 186.521, 1485.474 187.308, 1489.588 188.655, 1493.628 190.575, 1497.543 192.160, 1500.019 193.930, 1502.302 195.870, 1504.387 197.964, 1506.271 200.197, 1507.948 202.552, 1509.415 205.014, 1510.668 207.567, 1511.703 210.196, 1512.515 212.886, 1513.100 215.619, 1513.454 218.381, 1513.573 219.741, 1513.544 221.103, 1513.458 222.465, 1513.312 223.824, 1513.108 225.180, 1512.844 226.529, 1512.520 227.870, 1512.135 229.201, 1511.689 230.519, 1511.182 231.823, 1510.612 233.111, 1509.979 234.381, 1509.283 235.485, 1508.646 238.606, 1506.844 243.455, 1504.045 249.744, 1500.415 257.185, 1496.119 265.491, 1491.325 274.152, 1486.326 274.373, 1486.198 283.033, 1481.199 283.542, 1480.905 292.203, 1475.906 292.712, 1475.612 301.373, 1470.613 301.594, 1470.485 309.899, 1465.691 317.341, 1461.395 316.145, 1471.323 314.948, 1481.251 313.752, 1491.180 312.555, 1501.108 311.359, 1511.036 310.163, 1520.964 308.966, 1530.892 307.770, 1540.820 306.574, 1550.749 305.602, 1558.809 305.370, 1563.163 305.715, 1567.407 306.605, 1571.499 308.006, 1575.396 309.885, 1579.057 312.207, 1582.437 314.941, 1585.496 318.051, 1588.189 321.505, 1590.476 325.270, 1592.313 329.311, 1593.658 333.596, 1594.468 333.921, 1594.506 334.246, 1594.541 334.571, 1594.572 334.896, 1594.600 335.220, 1594.624 335.544, 1594.646 335.868, 1594.664 336.191, 1594.679 336.514, 1594.690 336.836, 1594.698 337.157, 1594.703 337.478, 1594.705 341.424, 1594.460 345.247, 1593.745 348.913, 1592.584 352.388, 1591.006 355.638, 1589.035 358.630, 1586.698 361.330, 1584.023 363.704, 1581.034 365.717, 1577.759 367.337, 1574.224 368.529, 1570.456 369.260, 1566.480 369.492, 1564.548 370.150, 1559.088 371.173, 1550.603 372.369, 1540.675 372.499, 1539.599 373.695, 1529.671 374.068, 1526.578 375.264, 1516.650 375.819, 1512.046 377.015, 1502.117 377.692, 1496.505 378.888, 1486.577 379.625, 1480.460 380.821, 1470.532 381.558, 1464.415 382.755, 1454.487 383.431, 1448.875 384.627, 1438.946 385.182, 1434.342 386.379, 1424.414 386.751, 1421.321 395.412, 1416.322 404.073, 1411.323 412.733, 1406.324 421.394, 1401.324 430.055, 1396.325 438.715, 1391.326 447.376, 1386.327 456.037, 1381.328 464.697, 1376.328 473.358, 1371.329 482.019, 1366.330 490.680, 1361.331 499.340, 1356.331 508.001, 1351.332 516.662, 1346.333 525.322, 1341.334 533.983, 1336.334 542.644, 1331.335 551.304, 1326.336 559.965, 1321.337 568.626, 1316.337 577.286, 1311.338 585.947, 1306.339 595.023, 1301.100 593.827, 1311.028 592.632, 1320.956 591.436, 1330.885 590.240, 1340.813 589.044, 1350.741 587.848, 1360.669 586.652, 1370.598 585.457, 1380.526 584.261, 1390.454 583.065, 1400.382 581.869, 1410.311 580.673, 1420.239 579.478, 1430.167 578.282, 1440.095 577.086, 1450.024 575.890, 1459.952 574.694, 1469.880 573.498, 1479.808 572.303, 1489.737 571.107, 1499.665 569.911, 1509.593 568.715, 1519.521 567.519, 1529.450 566.324, 1539.378 565.128, 1549.306 564.121, 1557.667 563.888, 1562.021 564.234, 1566.265 565.124, 1570.357 566.525, 1574.254 568.403, 1577.915 570.726, 1581.295 573.459, 1584.354 576.570, 1587.047 580.024, 1589.334 583.788, 1591.171 587.830, 1592.516 592.115, 1593.326 592.440, 1593.364 592.765, 1593.399 593.090, 1593.430 593.414, 1593.458 593.739, 1593.482 594.063, 1593.504 594.386, 1593.522 594.709, 1593.537 595.032, 1593.548 595.354, 1593.556 595.676, 1593.561 595.996, 1593.563 599.942, 1593.319 603.765, 1592.603 607.431, 1591.443 610.906, 1589.864 614.157, 1587.893 617.149, 1585.557 619.849, 1582.881 622.222, 1579.893 624.236, 1576.619 625.856, 1573.085 627.048, 1569.317 627.778, 1565.342 628.266, 1561.292 629.462, 1551.363 629.645, 1549.845 630.841, 1539.917 631.788, 1532.059 632.984, 1522.130 634.180, 1512.202 634.567, 1508.989 635.763, 1499.061 636.959, 1489.133 637.855, 1481.693 639.051, 1471.765 640.247, 1461.837 641.443, 1451.909 641.525, 1451.228 642.721, 1441.300 643.917, 1431.371 645.113, 1421.443 645.450, 1418.649 646.646, 1408.721 647.842, 1398.792 649.038, 1388.864 649.502, 1385.013 650.698, 1375.085 651.894, 1365.157 653.090, 1355.229 653.554, 1351.378 654.750, 1341.450 655.946, 1331.521 657.142, 1321.593 657.479, 1318.799 658.675, 1308.871 659.871, 1298.943 661.067, 1289.014 661.149, 1288.333 662.345, 1278.405 663.541, 1268.477 664.437, 1261.038 673.098, 1256.038 681.758, 1251.039 690.419, 1246.039 699.080, 1241.040 707.740, 1236.041 716.401, 1231.041 725.061, 1226.042 733.722, 1221.042 742.383, 1216.043 751.043, 1211.044 759.704, 1206.044 762.409, 1204.483 761.328, 1214.424 760.246, 1224.365 759.165, 1234.307 758.084, 1244.248 757.003, 1254.190 755.922, 1264.131 754.841, 1274.072 753.759, 1284.014 752.678, 1293.955 751.597, 1303.897 750.516, 1313.838 749.435, 1323.779 748.354, 1333.721 747.272, 1343.662 746.191, 1353.603 745.110, 1363.545 744.029, 1373.486 742.948, 1383.428 741.867, 1393.369 740.785, 1403.310 739.704, 1413.252 738.623, 1423.193 737.542, 1433.135 736.461, 1443.076 735.380, 1453.017 734.667, 1459.573 734.478, 1462.716 734.597, 1465.825 735.012, 1468.881 735.715, 1471.864 736.695, 1474.755 737.943, 1477.535 739.449, 1480.185 741.203, 1482.685 743.196, 1485.016 745.418, 1487.159 747.858, 1489.094 750.509, 1490.803 753.339, 1492.234 756.329, 1493.374 759.442, 1494.223 762.645, 1494.782 765.902, 1495.052 769.180, 1495.034 772.444, 1494.728 775.659, 1494.135 778.791, 1493.256 781.806, 1492.092 784.668, 1490.643 787.344, 1488.910 790.104, 1486.908 797.905, 1481.249 805.999, 1475.378 810.025, 1472.457 818.120, 1466.585 825.746, 1461.053 833.841, 1455.181 841.935, 1449.310 844.347, 1447.560 852.442, 1441.688 860.536, 1435.817 865.108, 1432.500 873.203, 1426.628 881.297, 1420.757 887.309, 1416.396 895.404, 1410.524 903.498, 1404.652 910.230, 1399.769 918.325, 1393.897 926.419, 1388.025 933.151, 1383.142 941.246, 1377.270 949.340, 1371.398 955.352, 1367.037 963.447, 1361.165 971.542, 1355.293 976.113, 1351.977 984.208, 1346.105 992.303, 1340.233 994.714, 1338.484 994.714, 1348.484 994.714, 1358.484 994.714, 1368.484 994.714, 1378.484 994.714, 1388.484 994.714, 1398.484 994.714, 1408.484 994.714, 1418.484 994.714, 1428.484 994.714, 1438.484 994.714, 1448.484 994.714, 1458.484 994.714, 1468.484 994.714, 1478.484 994.714, 1483.669 986.692, 1489.639 978.670, 1495.609 970.647, 1501.579 962.625, 1507.549 954.602, 1513.519 946.580, 1519.489 938.558, 1525.459 930.535, 1531.429 922.513, 1537.399 914.490, 1543.369 906.468, 1549.339 898.446, 1555.309 890.423, 1561.279 882.401, 1567.249 874.378, 1573.219 866.356, 1579.189 858.334, 1585.160 850.311, 1591.130 842.289, 1597.100 834.266, 1603.070 826.244, 1609.040 818.222, 1615.010 810.199, 1620.980 802.177, 1626.950 794.154, 1632.920 786.132, 1638.890 778.110, 1644.860 770.087, 1650.830 762.065, 1656.800 754.042, 1662.770 749.160, 1666.404 745.836, 1669.245 742.958, 1672.429 740.541, 1675.901 738.598, 1679.607 737.144, 1683.495 736.192, 1687.510 735.757, 1691.599 735.853, 1695.709 736.494, 1699.786 737.693, 1703.776 739.465, 1707.626 741.825, 1711.282 744.698, 1714.588 747.959, 1717.417 751.547, 1719.761 755.397, 1721.611 759.448, 1722.960 763.635, 1723.799 767.896, 1724.121 772.169, 1723.917 776.389, 1723.180 780.495, 1721.901 784.423, 1720.071 788.111, 1717.684 790.861, 1715.636 798.632, 1709.848 806.652, 1703.875 810.708, 1700.854 818.728, 1694.881 826.371, 1689.189 834.391, 1683.216 842.411, 1677.243 844.903, 1675.387 852.923, 1669.414 860.943, 1663.441 865.587, 1659.982 873.607, 1654.009 881.627, 1648.036 887.706, 1643.509 895.726, 1637.536 903.746, 1631.563 910.542, 1626.501 918.563, 1620.528 926.583, 1614.555 933.379, 1609.493 941.399, 1603.520 949.419, 1597.547 955.498, 1593.020 963.518, 1587.047 971.538, 1581.074 976.182, 1577.615 984.202, 1571.642 992.222, 1565.669 994.714, 1563.813 994.714, 1573.813 994.714, 1583.813 994.714, 1593.813 994.714, 1603.813 994.714, 1613.813 994.714, 1623.813 994.714, 1633.813 994.714, 1643.813 994.714, 1653.813 994.714, 1663.813 994.714, 1673.813 994.714, 1683.813 994.714, 1693.813 994.714, 1703.813 994.714, 1713.813 994.714, 1723.813 994.714, 1733.813 994.714, 1743.813 994.714, 1753.813 994.714, 1763.813 994.714, 1772.195 986.668, 1778.133 978.622, 1784.070 970.576, 1790.008 962.529, 1795.946 954.483, 1801.884 946.437, 1807.822 938.391, 1813.759 930.344, 1819.697 922.298, 1825.635 914.252, 1831.573 906.206, 1837.511 898.159, 1843.449 890.113, 1849.386 882.067, 1855.324 877.417, 1858.755 874.093, 1861.597 871.216, 1864.781 868.799, 1868.253 866.856, 1871.959 865.402, 1875.847 864.450, 1879.862 864.015, 1883.951 864.111, 1888.061 864.751, 1892.138 865.951, 1896.128 867.723, 1899.978 870.083, 1903.634 872.952, 1906.933 876.211, 1909.758 879.796, 1912.100 883.645, 1913.949 887.694, 1915.299 891.881, 1916.140 896.143, 1916.464 900.416, 1916.263 904.639, 1915.528 908.747, 1914.250 912.678, 1912.423 916.369, 1910.035 917.411, 1909.267 920.358, 1907.097 924.938, 1903.725 930.877, 1899.351 937.905, 1894.176 945.748, 1888.399 953.800, 1882.469 954.136, 1882.222 962.188, 1876.292 962.796, 1875.845 970.848, 1869.915 971.456, 1869.467 979.508, 1863.538 979.843, 1863.290 987.687, 1857.514 994.714, 1852.339 994.714, 1862.339 994.714, 1872.339 994.714, 1882.339 994.714, 1892.339 994.714, 1902.339 994.714, 1912.339 994.714, 1922.339 994.714, 1932.339 994.714, 1942.339 994.714, 1948.513 995.007, 1952.863 995.860, 1957.035 997.234, 1960.991 999.092, 1964.693 1001.396, 1968.102 1004.106, 1971.181 1007.186, 1973.890 1010.596, 1976.193 1014.298, 1978.050 1018.255, 1979.424 1022.428, 1980.277 1026.778, 1980.569 1031.128, 1980.277 1035.301, 1979.424 1039.257, 1978.050 1042.960, 1976.192 1046.370, 1973.889 1049.449, 1971.179 1052.160, 1968.100 1054.463, 1964.691 1056.321, 1960.989 1057.696, 1957.034 1058.549, 1952.862 1058.841, 1948.513 1058.841, 1947.233 1058.841, 1943.615 1058.841, 1937.994 1058.841, 1930.703 1058.841, 1922.076 1058.841, 1912.447 1058.841, 1902.447 1058.841, 1902.151 1058.841, 1892.151 1058.841, 1891.521 1058.841, 1881.521 1058.841, 1880.890 1058.841, 1870.890 1058.841, 1870.594 1058.841, 1860.965 1058.841, 1852.339 1066.771, 1858.431 1074.701, 1864.524 1082.630, 1870.617 1090.560, 1876.709 1098.489, 1882.802 1106.419, 1888.895 1114.349, 1894.988 1122.278, 1901.080 1130.208, 1907.173 1133.933, 1910.035 1135.378, 1911.072 1136.828, 1912.016 1138.285, 1912.867 1139.753, 1913.626 1141.234, 1914.293 1142.731, 1914.870 1144.246, 1915.356 1145.784, 1915.752 1147.346, 1916.059 1148.936, 1916.278 1150.556, 1916.409 1152.210, 1916.452 1154.635, 1916.360 1157.028, 1916.085 1159.380, 1915.629 1161.684, 1914.993 1163.931, 1914.179 1166.115, 1913.189 1168.226, 1912.024 1170.257, 1910.686 1172.200, 1909.176 1174.048, 1907.496 1175.791, 1905.648 1177.423, 1903.634 1179.833, 1899.978 1181.745, 1896.128 1183.154, 1892.137 1184.059, 1888.061 1184.454, 1883.951 1184.336, 1879.862 1183.701, 1875.847 1182.546, 1871.959 1180.867, 1868.253 1178.660, 1864.781 1175.921, 1861.597 1172.647, 1858.755 1171.133, 1857.603 1166.852, 1854.347 1160.199, 1849.288 1152.240, 1843.234 1151.572, 1842.726 1143.612, 1836.672 1141.363, 1834.961 1133.403, 1828.907 1129.969, 1826.295 1122.009, 1820.241 1117.784, 1817.028 1109.825, 1810.974 1105.205, 1807.460 1097.245, 1801.406 1092.625, 1797.892 1084.666, 1791.839 1080.440, 1788.625 1072.481, 1782.571 1069.046, 1779.959 1061.087, 1773.905 1058.838, 1772.195 1058.838, 1762.195 1058.838, 1752.195 1058.838, 1742.195 1058.838, 1732.195 1058.838, 1722.195 1058.838, 1712.195 1058.838, 1702.195 1058.838, 1692.195 1058.838, 1682.195 1058.838, 1672.195 1058.838, 1662.195 1058.838, 1652.195 1058.838, 1642.195 1058.838, 1632.195 1058.838, 1622.195 1058.838, 1612.195 1058.838, 1602.195 1058.838, 1592.195 1058.838, 1582.195 1058.838, 1572.195 1058.838, 1563.813 1066.812, 1569.847 1074.786, 1575.881 1082.761, 1581.915 1090.735, 1587.949 1098.710, 1593.983 1106.684, 1600.017 1114.658, 1606.051 1122.633, 1612.085 1130.607, 1618.119 1138.582, 1624.153 1146.556, 1630.187 1154.531, 1636.221 1162.505, 1642.255 1170.479, 1648.288 1178.454, 1654.322 1186.428, 1660.356 1194.402, 1666.390 1202.377, 1672.424 1210.351, 1678.458 1218.326, 1684.492 1226.300, 1690.526 1234.275, 1696.560 1242.249, 1702.594 1250.223, 1708.628 1258.198, 1714.662 1262.191, 1717.684 1263.636, 1718.721 1265.086, 1719.664 1266.543, 1720.515 1268.011, 1721.274 1269.492, 1721.941 1270.988, 1722.518 1272.504, 1723.004 1274.042, 1723.400 1275.604, 1723.707 1277.194, 1723.926 1278.814, 1724.057 1280.468, 1724.100 1282.893, 1724.008 1285.286, 1723.733 1287.638, 1723.277 1289.942, 1722.641 1292.190, 1721.827 1294.374, 1720.837 1296.485, 1719.672 1298.517, 1718.334 1300.460, 1716.824 1302.307, 1715.145 1304.050, 1713.297 1305.681, 1711.282 1308.091, 1707.626 1310.003, 1703.776 1311.412, 1699.786 1312.317, 1695.709 1312.711, 1691.599 1312.593, 1687.510 1311.959, 1683.495 1310.804, 1679.607 1309.124, 1675.901 1306.917, 1672.429 1304.179, 1669.245 1300.905, 1666.404 1297.683, 1663.971 1289.702, 1657.946 1288.578, 1657.098 1280.597, 1651.073 1274.429, 1646.417 1266.448, 1640.392 1258.467, 1634.367 1256.078, 1632.564 1248.097, 1626.539 1240.115, 1620.514 1234.365, 1616.173 1226.384, 1610.148 1218.402, 1604.123 1210.421, 1598.098 1210.130, 1597.878 1202.149, 1591.853 1194.167, 1585.828 1186.186, 1579.803 1184.214, 1578.315 1176.233, 1572.290 1168.252, 1566.265 1160.270, 1560.240 1157.458, 1558.116 1149.477, 1552.091 1141.495, 1546.067 1133.514, 1540.042 1130.701, 1537.918 1122.720, 1531.893 1114.739, 1525.868 1106.758, 1519.844 1104.786, 1518.355 1096.804, 1512.330 1088.823, 1506.305 1080.842, 1500.280 1080.551, 1500.060 1072.570, 1494.035 1064.588, 1488.010 1058.838, 1483.669 1058.838, 1473.669 1058.838, 1463.669 1058.838, 1453.669 1058.838, 1443.669 1058.838, 1433.669 1058.838, 1423.669 1058.838, 1413.669 1058.838, 1403.669 1058.838, 1393.669 1058.838, 1383.669 1058.838, 1373.669 1058.838, 1363.669 1058.838, 1353.669 1058.838, 1343.669 1058.838, 1338.484 1066.881, 1344.425 1074.925, 1350.367 1082.968, 1356.308 1091.012, 1362.250 1099.056, 1368.191 1107.099, 1374.132 1115.143, 1380.074 1123.187, 1386.015 1131.230, 1391.957 1139.274, 1397.898 1147.317, 1403.839 1155.361, 1409.781 1163.405, 1415.722 1171.448, 1421.664 1179.492, 1427.605 1187.535, 1433.546 1195.579, 1439.488 1203.623, 1445.429 1211.666, 1451.371 1219.710, 1457.312 1227.753, 1463.253 1235.797, 1469.195 1243.841, 1475.136 1251.884, 1481.078 1259.928, 1487.019 1262.488, 1488.910 1263.896, 1489.893 1265.311, 1490.792 1266.736, 1491.607 1268.174, 1492.336 1269.628, 1492.981 1271.102, 1493.540 1272.597, 1494.014 1274.116, 1494.402 1275.664, 1494.704 1277.242, 1494.920 1278.853, 1495.050 1280.502, 1495.094 1281.874, 1495.064 1283.228, 1494.975 1284.566, 1494.826 1285.888, 1494.618 1287.196, 1494.351 1288.491, 1494.023 1289.775, 1493.636 1291.049, 1493.189 1292.314, 1492.683 1293.571, 1492.116 1294.823, 1491.490 1296.069, 1490.803 1298.716, 1489.094 1301.144, 1487.159 1303.348, 1485.016 1305.317, 1482.686 1307.044, 1480.186 1308.522, 1477.537 1309.741, 1474.757 1310.694, 1471.866 1311.373, 1468.883 1311.769, 1465.827 1311.875, 1462.717 1311.682, 1459.573 1311.313, 1456.190 1310.268, 1446.629 1309.183, 1436.688 1308.646, 1431.773 1307.560, 1421.833 1306.541, 1412.505 1305.455, 1402.564 1304.370, 1392.623 1304.051, 1389.707 1302.965, 1379.766 1301.880, 1369.825 1301.272, 1364.261 1300.186, 1354.320 1299.100, 1344.379 1298.300, 1337.050 1297.214, 1327.109 1296.128, 1317.168 1295.231, 1308.956 1294.145, 1299.015 1293.060, 1289.074 1292.163, 1280.862 1291.077, 1270.922 1289.991, 1260.981 1289.190, 1253.651 1288.105, 1243.710 1287.019, 1233.770 1286.411, 1228.205 1285.325, 1218.264 1284.240, 1208.324 1283.921, 1205.407 1292.689, 1210.215 1301.457, 1215.024 1310.225, 1219.832 1318.993, 1224.641 1327.761, 1229.449 1336.529, 1234.258 1345.297, 1239.066 1354.066, 1243.874 1362.834, 1248.683 1371.602, 1253.491 1380.370, 1258.300 1389.138, 1263.108 1398.618, 1268.307 1407.272, 1273.317 1409.143, 1274.401 1410.339, 1284.329 1411.535, 1294.257 1412.731, 1304.185 1413.928, 1314.113 1415.124, 1324.042 1416.320, 1333.970 1417.516, 1343.898 1418.713, 1353.826 1419.909, 1363.754 1421.105, 1373.682 1422.301, 1383.611 1423.497, 1393.539 1424.693, 1403.467 1425.890, 1413.395 1427.086, 1423.323 1428.282, 1433.252 1429.478, 1443.180 1430.674, 1453.108 1431.871, 1463.036 1433.067, 1472.964 1434.263, 1482.893 1435.459, 1492.821 1436.655, 1502.749 1437.852, 1512.677 1439.048, 1522.605 1440.244, 1532.534 1441.440, 1542.462 1442.636, 1552.390 1443.833, 1562.318 1445.029, 1572.246 1446.129, 1581.376 1446.860, 1585.351 1448.052, 1589.118 1449.672, 1592.653 1451.684, 1595.927 1454.057, 1598.915 1456.756, 1601.591 1459.747, 1603.927 1462.996, 1605.898 1466.470, 1607.477 1470.135, 1608.637 1473.957, 1609.353 1477.903, 1609.597 1478.224, 1609.595 1478.546, 1609.590 1478.868, 1609.582 1479.191, 1609.571 1479.513, 1609.556 1479.836, 1609.538 1480.160, 1609.516 1480.483, 1609.492 1480.807, 1609.464 1481.131, 1609.432 1481.456, 1609.398 1481.781, 1609.360 1486.066, 1608.551 1490.107, 1607.207 1493.871, 1605.370 1497.325, 1603.084 1500.435, 1600.390 1503.168, 1597.332 1505.490, 1593.951 1507.368, 1590.291 1508.769, 1586.393 1509.658, 1582.300 1510.004, 1578.055 1509.771, 1573.701 1509.355, 1570.250 1508.180, 1560.499 1506.984, 1550.571 1506.355, 1545.347 1505.158, 1535.419 1503.986, 1525.694 1502.790, 1515.766 1501.594, 1505.838 1501.185, 1502.441 1499.988, 1492.513 1498.792, 1482.585 1498.057, 1476.488 1496.861, 1466.560 1495.665, 1456.632 1494.713, 1448.734 1493.517, 1438.806 1492.320, 1428.878 1491.260, 1420.081 1490.064, 1410.152 1488.868, 1400.224 1487.808, 1391.427 1486.611, 1381.499 1485.415, 1371.570 1484.463, 1363.673 1483.267, 1353.745 1482.071, 1343.817 1481.336, 1337.720 1480.140, 1327.792 1478.943, 1317.863 1478.534, 1314.467 1487.195, 1319.466 1495.855, 1324.466 1504.516, 1329.465 1513.176, 1334.465 1521.837, 1339.464 1530.497, 1344.464 1539.158, 1349.463 1547.818, 1354.463 1556.479, 1359.462 1565.140, 1364.462 1573.800, 1369.461 1582.461, 1374.461 1591.121, 1379.460 1599.782, 1384.460 1608.442, 1389.459 1617.103, 1394.459 1625.763, 1399.458 1634.424, 1404.458 1643.084, 1409.457 1651.745, 1414.457 1659.041, 1418.669 1660.238, 1428.597 1661.435, 1438.525 1662.632, 1448.453 1663.828, 1458.381 1665.025, 1468.310 1666.222, 1478.238 1667.419, 1488.166 1668.615, 1498.094 1669.812, 1508.022 1671.009, 1517.950 1672.206, 1527.878 1673.402, 1537.807 1674.599, 1547.735 1675.796, 1557.663 1676.860, 1566.488 1677.591, 1570.463 1678.784, 1574.231 1680.404, 1577.765 1682.417, 1581.040 1684.791, 1584.029 1687.491, 1586.705 1690.482, 1589.041 1693.733, 1591.012 1697.207, 1592.592 1700.873, 1593.752 1704.696, 1594.468 1708.641, 1594.713 1708.963, 1594.711 1709.285, 1594.706 1709.608, 1594.698 1709.931, 1594.686 1710.254, 1594.671 1710.578, 1594.653 1710.902, 1594.632 1711.226, 1594.607 1711.550, 1594.579 1711.875, 1594.548 1712.199, 1594.514 1712.523, 1594.476 1716.808, 1593.666 1720.849, 1592.321 1724.614, 1590.484 1728.068, 1588.198 1731.179, 1585.504 1733.912, 1582.446 1736.235, 1579.066 1738.113, 1575.406 1739.514, 1571.508 1740.404, 1567.416 1740.750, 1563.171 1740.517, 1558.816 1740.357, 1557.484 1739.903, 1553.720 1739.198, 1547.870 1738.284, 1540.283 1737.203, 1531.306 1735.995, 1521.286 1734.799, 1511.358 1734.704, 1510.571 1733.508, 1500.643 1733.372, 1499.509 1732.175, 1489.581 1732.039, 1488.447 1730.843, 1478.519 1730.748, 1477.732 1729.541, 1467.712 1728.459, 1458.735 1737.120, 1463.734 1745.781, 1468.733 1754.441, 1473.733 1763.102, 1478.732 1771.763, 1483.731 1780.424, 1488.730 1789.084, 1493.729 1797.745, 1498.728 1806.406, 1503.727 1812.321, 1507.142 1813.595, 1507.838 1814.885, 1508.470 1816.191, 1509.040 1817.510, 1509.548 1818.841, 1509.994 1820.181, 1510.379 1821.529, 1510.703 1822.883, 1510.967 1824.241, 1511.171 1825.602, 1511.316 1826.962, 1511.403 1828.321, 1511.432 1831.083, 1511.313 1833.816, 1510.959 1836.505, 1510.374 1839.135, 1509.562 1841.688, 1508.527 1844.150, 1507.274 1846.505, 1505.807 1848.738, 1504.129 1850.832, 1502.246 1852.772, 1500.161 1854.542, 1497.878 1856.127, 1495.402 1858.047, 1491.487 1859.394, 1487.446 1860.181, 1483.333 1860.423, 1479.198 1860.134, 1475.094 1859.326, 1471.073 1858.015, 1467.187 1856.213, 1463.488 1853.936, 1460.028 1851.196, 1456.860 1848.007, 1454.035 1844.385, 1451.605 1843.333, 1450.998 1840.360, 1449.282 1835.741, 1446.615 1829.749, 1443.157 1822.661, 1439.065 1814.748, 1434.498 1806.287, 1429.614 1797.552, 1424.572 1788.817, 1419.529 1780.356, 1414.645 1772.444, 1410.078 1765.355, 1405.986 1774.551, 1402.058 1783.747, 1398.131 1792.944, 1394.203 1802.140, 1390.276 1811.337, 1386.348 1820.533, 1382.420 1829.729, 1378.493 1838.926, 1374.565 1848.122, 1370.637 1849.536, 1370.034 1853.426, 1368.057 1856.931, 1365.635 1860.032, 1362.818 1862.709, 1359.657 1864.941, 1356.201 1866.708, 1352.501 1867.991, 1348.606 1868.769, 1344.567 1869.022, 1340.434 1868.730, 1336.258 1867.873, 1332.087 1866.430, 1327.972 1864.453, 1324.091 1862.032, 1320.592 1859.216, 1317.495 1856.056, 1314.821 1852.601, 1312.590 1848.901, 1310.822 1845.006, 1309.538 1840.967, 1308.758 1836.833, 1308.502 1832.654, 1308.790 1828.479, 1309.644 1824.360, 1311.082 1822.651, 1311.812 1817.820, 1313.875 1810.314, 1317.080 1801.118, 1321.007 1800.579, 1321.237 1791.382, 1325.164 1789.060, 1326.156 1779.863, 1330.083 1776.203, 1331.646 1767.006, 1335.573 1762.454, 1337.517 1753.258, 1341.444 1748.260, 1343.578 1739.063, 1347.506 1734.065, 1349.640 1724.869, 1353.567 1720.317, 1355.511 1711.120, 1359.438 1707.460, 1361.001 1698.263, 1364.928 1695.941, 1365.920 1687.280, 1360.921 1678.619, 1355.922 1669.958, 1350.923 1661.298, 1345.923 1652.637, 1340.924 1643.976, 1335.925 1635.315, 1330.926 1626.655, 1325.927 1617.994, 1320.928 1609.333, 1315.929 1600.672, 1310.930 1592.011, 1305.931 1583.351, 1300.932 1574.690, 1295.933 1566.029, 1290.933 1557.368, 1285.934 1548.708, 1280.935 1540.047, 1275.936 1531.386, 1270.937 1522.725, 1265.938 1515.426, 1261.725 1524.623, 1257.797 1533.819, 1253.870 1543.015, 1249.942 1552.212, 1246.014 1561.408, 1242.086 1570.604, 1238.159 1579.801, 1234.231 1588.997, 1230.303 1598.194, 1226.376 1607.390, 1222.448 1616.586, 1218.520 1625.783, 1214.593 1634.979, 1210.665 1644.175, 1206.737 1653.372, 1202.809 1662.568, 1198.882 1671.765, 1194.954 1680.961, 1191.026 1690.157, 1187.099 1699.354, 1183.171 1708.550, 1179.243 1717.746, 1175.315 1726.943, 1171.388 1736.139, 1167.460 1747.048, 1162.801 1750.937, 1160.824 1754.442, 1158.403 1757.542, 1155.587 1760.219, 1152.426 1762.451, 1148.970 1764.219, 1145.270 1765.502, 1141.375 1766.280, 1137.337 1766.533, 1133.204 1766.241, 1129.026 1765.384, 1124.855 1763.942, 1120.740 1761.965, 1116.855 1759.543, 1113.353 1756.726, 1110.254 1753.564, 1107.578 1750.108, 1105.346 1746.407, 1103.578 1742.512, 1102.295 1738.472, 1101.515 1734.338, 1101.261 1730.160, 1101.552 1725.988, 1102.408 1721.872, 1103.849 1718.200, 1105.417 1709.004, 1109.345 1707.824, 1109.849 1698.628, 1113.776 1691.701, 1116.734 1682.504, 1120.662 1673.308, 1124.589 1670.788, 1125.665 1661.592, 1129.593 1652.395, 1133.520 1646.045, 1136.232 1636.848, 1140.160 1627.652, 1144.087 1618.427, 1148.026 1609.231, 1151.954 1600.034, 1155.881 1590.838, 1159.809 1588.895, 1160.639 1579.698, 1164.566 1570.502, 1168.494 1561.305, 1172.421 1558.404, 1173.660 1549.208, 1177.588 1540.011, 1181.515 1530.815, 1185.443 1527.913, 1186.681 1518.717, 1190.609 1509.521, 1194.536 1500.324, 1198.464 1498.381, 1199.294 1489.184, 1203.221 1479.988, 1207.149 1470.764, 1211.088 1461.567, 1215.015 1452.371, 1218.943 1446.020, 1221.655 1437.359, 1216.656 1430.020, 1212.421 1421.251, 1207.614 1412.482, 1202.807 1403.713, 1198.001 1394.944, 1193.194 1386.175, 1188.387 1377.406, 1183.581 1368.637, 1178.774 1359.868, 1173.967 1351.099, 1169.161 1342.330, 1164.354 1333.561, 1159.547 1324.792, 1154.740 1316.969, 1150.452 1326.120, 1146.419 1335.270, 1142.385 1344.420, 1138.351 1353.571, 1134.318 1362.721, 1130.284 1371.871, 1126.250 1381.022, 1122.216 1390.172, 1118.183 1399.322, 1114.149 1408.473, 1110.115 1417.623, 1106.081 1426.773, 1102.048 1435.924, 1098.014 1445.074, 1093.980 1454.224, 1089.946 1463.375, 1085.913 1472.525, 1081.879 1481.675, 1077.845 1490.826, 1073.811 1499.976, 1069.778 1509.126, 1065.744 1518.277, 1061.710 1527.427, 1057.676 1536.578, 1053.643 1545.728, 1049.609 1549.027, 1048.155 1551.847, 1046.745 1554.483, 1045.087 1556.924, 1043.199 1559.158, 1041.099 1561.172, 1038.804 1562.956, 1036.334 1564.498, 1033.706 1565.785, 1030.937 1566.807, 1028.047 1567.551, 1025.052 1568.006, 1021.971 1568.160, 1018.822 1568.006, 1015.673 1567.551, 1012.591 1566.807, 1009.596 1565.785, 1006.705 1564.498, 1003.937 1562.956, 1001.308 1561.172, 998.838 1559.158, 996.543 1556.924, 994.443 1554.483, 992.556 1551.847, 990.898 1549.027, 989.489 1546.119, 988.207 1537.903, 984.585 1528.753, 980.552 1525.137, 978.957 1515.986, 974.924 1508.578, 971.658 1499.428, 967.624 1490.278, 963.590 1488.986, 963.021 1479.836, 958.987 1470.685, 954.953 1467.119, 953.381 1457.968, 949.347 1448.818, 945.314 1443.734, 943.073 1434.584, 939.039 1425.434, 935.005 1419.592, 932.430 1410.442, 928.396 1401.291, 924.362 1395.449, 921.787 1386.299, 917.753 1377.149, 913.720 1372.065, 911.479 1362.915, 907.445 1353.764, 903.411 1350.198, 901.839 1341.047, 897.805 1331.897, 893.771 1330.605, 893.202 1339.266, 888.203 1347.927, 883.204 1356.588, 878.204 1365.248, 873.205 1373.909, 868.206 1382.570, 863.207 1391.230, 858.208 1399.891, 853.208 1408.552, 848.209 1417.213, 843.210 1425.873, 838.211 1434.534, 833.211 1443.195, 828.212 1451.855, 823.213 1456.567, 820.493 1465.764, 824.420 1474.960, 828.348 1484.157, 832.275 1493.353, 836.203 1502.550, 840.130 1511.746, 844.057 1520.943, 847.985 1530.139, 851.912 1539.336, 855.840 1548.532, 859.767 1557.729, 863.694 1566.925, 867.622 1576.122, 871.549 1585.318, 875.477 1594.515, 879.404 1603.711, 883.331 1612.908, 887.259 1622.104, 891.186 1631.301, 895.114 1640.497, 899.041 1649.694, 902.969 1658.890, 906.896 1668.087, 910.823 1677.283, 914.751 1686.480, 918.678 1695.676, 922.606 1704.873, 926.533 1714.069, 930.460 1721.876, 933.794 1722.905, 934.214 1723.940, 934.596 1724.981, 934.941 1726.026, 935.248 1727.075, 935.518 1728.127, 935.752 1729.181, 935.949 1730.235, 936.110 1731.290, 936.234 1732.345, 936.323 1733.398, 936.376 1734.449, 936.394 1737.544, 936.243 1740.594, 935.796 1743.577, 935.061 1746.472, 934.047 1749.259, 932.763 1751.915, 931.216 1754.421, 929.416 1756.754, 927.370 1758.895, 925.087 1760.821, 922.576 1762.511, 919.846 1763.946, 916.904 1765.388, 912.789 1766.245, 908.619 1766.537, 904.442 1766.284, 900.309 1765.507, 896.270 1764.224, 892.375 1762.457, 888.675 1760.224, 885.219 1757.548, 882.058 1754.447, 879.241 1750.941, 876.819 1747.052, 874.843 1744.109, 873.586 1735.793, 870.034 1726.597, 866.106 1722.872, 864.515 1713.675, 860.588 1706.112, 857.357 1696.916, 853.430 1687.719, 849.502 1686.282, 848.888 1677.085, 844.960 1667.889, 841.033 1664.149, 839.435 1654.953, 835.508 1645.756, 831.580 1640.481, 829.327 1631.284, 825.399 1622.088, 821.471 1616.045, 818.890 1606.849, 814.963 1597.652, 811.035 1591.609, 808.454 1582.413, 804.526 1573.216, 800.598 1567.941, 798.345 1558.744, 794.417 1549.548, 790.490 1545.808, 788.892 1536.611, 784.965 1527.415, 781.037 1525.978, 780.423 1534.638, 775.424 1543.299, 770.425 1551.960, 765.426 1560.621, 760.427 1569.281, 755.427 1577.942, 750.428 1586.603, 745.429 1595.264, 740.430 1603.925, 735.431 1612.585, 730.432 1621.246, 725.433 1629.907, 720.434 1638.568, 715.435 1647.229, 710.436 1655.889, 705.437 1664.550, 700.438 1673.211, 695.438 1681.872, 690.439 1690.532, 685.440 1699.193, 680.441 1706.492, 676.228 1715.689, 680.155 1717.066, 680.742 1726.263, 684.669 1728.868, 685.781 1738.065, 689.707 1741.489, 691.169 1750.686, 695.095 1754.519, 696.731 1763.715, 700.658 1767.548, 702.294 1776.745, 706.220 1780.169, 707.682 1789.366, 711.608 1791.971, 712.720 1801.168, 716.647 1802.545, 717.235 1811.482, 721.050 1818.372, 723.991 1822.806, 725.884 1824.375, 726.554 1825.404, 726.974 1826.440, 727.356 1827.481, 727.701 1828.526, 728.008 1829.575, 728.278 1830.627, 728.512 1831.680, 728.709 1832.735, 728.870 1833.790, 728.995 1834.844, 729.083 1835.897, 729.136 1836.948, 729.154 1840.048, 729.003 1843.100, 728.556 1846.085, 727.821 1848.980, 726.807 1851.766, 725.523 1854.422, 723.976 1856.926, 722.176 1859.258, 720.130 1861.397, 717.847 1863.322, 715.336 1865.011, 712.606 1866.445, 709.664 1867.888, 705.549 1868.745, 701.379 1869.037, 697.202 1868.784, 693.069 1868.006, 689.030 1866.723, 685.135 1864.956, 681.435 1862.724, 677.979 1860.047, 674.818 1856.946, 672.001 1853.441, 669.579 1849.551, 667.603 1848.571, 667.184 1845.801, 666.001 1841.497, 664.162 1835.914, 661.778 1829.308, 658.957 1821.936, 655.808 1814.052, 652.441 1805.912, 648.964 1797.772, 645.488 1789.888, 642.121 1782.516, 638.972 1775.910, 636.151 1784.571, 631.151 1793.231, 626.152 1801.892, 621.153 1810.553, 616.154 1819.214, 611.155 1827.874, 606.156 1836.535, 601.156 1845.196, 596.157 1853.856, 591.158 1857.284, 589.179 1860.907, 586.750 1864.096, 583.925 1866.836, 580.756 1869.113, 577.296 1870.915, 573.597 1872.226, 569.711 1873.033, 565.690 1873.323, 561.586 1873.081, 557.451 1872.294, 553.338 1870.947, 549.298 1869.027, 545.383 1866.593, 541.763 1863.762, 538.576 1860.589, 535.835 1857.124, 533.556 1853.420, 531.752 1849.531, 530.437 1845.507, 529.627 1841.403, 529.336 1837.269, 529.577 1833.160, 530.366 1829.126, 531.716 1825.221, 533.643 1823.915, 534.397 1820.224, 536.527 1814.490, 539.837 1807.052, 544.131 1798.391, 549.131 1798.251, 549.211 1789.590, 554.211 1788.428, 554.882 1779.767, 559.881 1777.924, 560.945 1769.263, 565.945 1767.079, 567.206 1758.418, 572.205 1756.234, 573.466 1747.573, 578.465 1745.730, 579.530 1737.069, 584.529 1735.907, 585.200 1727.246, 590.199 1727.106, 590.280 1728.303, 580.352 1729.499, 570.424 1730.695, 560.496 1731.891, 550.567 1733.088, 540.639 1734.284, 530.711 1735.480, 520.783 1736.677, 510.855 1737.873, 500.927 1739.069, 490.998 1740.265, 481.070 1740.536, 478.824 1740.768, 474.470 1740.423, 470.225 1739.533, 466.133 1738.132, 462.236 1736.254, 458.576 1733.931, 455.195 1731.198, 452.137 1728.087, 449.443 1724.633, 447.156 1720.868, 445.319 1716.827, 443.974 1712.542, 443.164 1708.210, 442.928 1704.030, 443.270 1700.034, 444.158 1696.258, 445.556 1692.735, 447.433 1689.501, 449.755 1686.589, 452.488 1684.033, 455.598 1681.868, 459.054 1680.129, 462.820 1678.849, 466.864 1678.062, 471.152 1677.823, 473.270 1677.146, 479.256 1676.094, 488.557 1674.970, 498.494 1674.730, 500.621 1673.606, 510.557 1673.116, 514.895 1671.992, 524.831 1671.314, 530.826 1670.190, 540.763 1669.388, 547.863 1668.264, 557.799 1667.399, 565.452 1666.275, 575.388 1665.409, 583.041 1664.286, 592.977 1663.483, 600.077 1662.359, 610.014 1661.681, 616.009 1660.558, 625.945 1660.067, 630.283 1660.067, 630.287 1660.067, 630.292 1660.067, 630.297 1660.067, 630.302 1660.067, 630.306 1660.067, 630.311 1660.067, 630.316 1660.067, 630.321 1660.067, 630.326 1660.067, 630.332 1660.067, 630.337 1660.067, 630.343 1657.649, 631.730 1650.814, 635.649 1642.139, 640.624 1640.194, 641.740 1631.519, 646.715 1626.419, 649.639 1617.744, 654.614 1610.120, 658.986 1601.445, 663.961 1592.771, 668.936 1591.929, 669.419 1583.254, 674.393 1574.579, 679.368 1572.476, 680.574 1563.801, 685.549 1555.126, 690.524 1552.392, 692.092 1543.717, 697.067 1535.042, 702.042 1532.308, 703.610 1523.633, 708.585 1514.958, 713.559 1512.855, 714.766 1504.180, 719.741 1495.505, 724.715 1494.664, 725.198 1485.989, 730.173 1478.365, 734.545 1479.540, 724.614 1480.715, 714.683 1481.890, 704.753 1483.065, 694.822 1484.240, 684.891 1485.415, 674.961 1486.590, 665.030 1487.765, 655.099 1488.940, 645.168 1490.115, 635.238 1491.290, 625.307 1492.465, 615.376 1493.640, 605.446 1494.815, 595.515 1495.990, 585.584 1497.165, 575.653 1498.340, 565.723 1499.515, 555.792 1500.690, 545.861 1501.865, 535.930 1503.040, 526.000 1504.215, 516.069 1505.390, 506.138 1506.565, 496.208 1507.740, 486.277 1508.915, 476.346 1510.384, 463.935 1510.610, 459.581 1510.249, 455.337 1509.334, 451.245 1507.903, 447.348 1505.990, 443.688 1503.630, 440.307 1500.860, 437.249 1497.715, 434.555 1494.230, 432.268 1490.441, 430.431 1486.383, 429.086 1482.093, 428.276 1477.759, 428.026 1473.599, 428.360 1469.644, 429.243 1465.923, 430.641 1462.466, 432.519 1459.304, 434.844 1456.465, 437.582 1453.980, 440.698 1451.879, 444.158 1450.192, 447.929 1448.947, 451.975 1448.177, 456.264 1447.689, 460.500 1446.547, 470.435 1446.312, 472.473 1445.170, 482.407 1444.172, 491.076 1443.030, 501.010 1441.887, 510.945 1441.397, 515.205 1440.254, 525.139 1439.112, 535.074 1438.113, 543.754 1436.970, 553.688 1435.828, 563.623 1434.685, 573.557 1434.448, 575.619 1433.305, 585.553 1432.162, 595.488 1431.020, 605.422 1430.528, 609.694 1429.386, 619.628 1428.243, 629.563 1427.100, 639.497 1426.482, 644.874 1425.339, 654.808 1424.196, 664.743 1423.054, 674.677 1422.435, 680.054 1421.292, 689.989 1420.150, 699.923 1419.007, 709.858 1418.516, 714.129 1417.373, 724.064 1416.230, 733.998 1415.087, 743.933 1414.850, 745.994 1413.708, 755.929 1412.565, 765.863 1411.567, 774.544 1411.567, 774.549 1411.567, 774.555 1411.567, 774.561 1411.567, 774.567 1411.567, 774.573 1411.567, 774.579 1411.567, 774.585 1411.567, 774.591 1411.567, 774.598 1411.567, 774.603 1411.567, 774.609 1411.567, 774.615 1409.870, 775.580 1405.075, 778.306 1397.625, 782.542 1388.933, 787.486 1387.963, 788.037 1379.270, 792.980 1376.529, 794.539 1367.837, 799.482 1363.769, 801.795 1355.076, 806.738 1350.123, 809.555 1341.430, 814.498 1336.034, 817.566 1327.341, 822.509 1321.945, 825.577 1313.252, 830.521 1308.299, 833.337 1299.606, 838.280 1295.538, 840.594 1286.846, 845.537 1284.105, 847.095 1285.152, 837.150 1286.198, 827.205 1287.244, 817.260 1288.291, 807.314 1289.337, 797.369 1290.383, 787.424 1291.430, 777.479 1292.476, 767.534 1293.523, 757.589 1294.569, 747.644 1295.615, 737.699 1296.662, 727.754 1297.708, 717.808 1298.754, 707.863 1299.801, 697.918 1300.847, 687.973 1301.893, 678.028 1302.940, 668.083 1303.986, 658.138 1305.032, 648.193 1306.079, 638.248 1307.125, 628.302 1308.172, 618.357 1309.218, 608.412 1310.264, 598.467 1311.311, 588.522 1312.411, 578.063 1312.590, 574.920 1312.445, 571.811 1311.991, 568.755 1311.239, 565.772 1310.203, 562.881 1308.896, 560.101 1307.331, 557.451 1305.521, 554.951 1303.479, 552.620 1301.218, 550.477 1298.751, 548.542 1296.092, 546.833 1293.320, 545.398 1290.513, 544.256 1287.682, 543.405 1284.836, 542.844 1281.985, 542.573 1279.140, 542.591 1276.310, 542.897 1273.505, 543.491 1270.736, 544.372 1268.012, 545.538 1265.343, 546.990 1262.740, 548.726 1260.026, 550.729 1252.356, 556.387 1244.310, 562.324 1240.439, 565.179 1232.393, 571.116 1224.983, 576.583 1216.936, 582.520 1208.889, 588.457 1206.694, 590.076 1198.647, 596.013 1190.600, 601.950 1186.282, 605.136 1178.235, 611.073 1170.188, 617.010 1164.454, 621.241 1156.407, 627.178 1148.360, 633.115 1141.918, 637.868 1133.871, 643.804 1125.824, 649.741 1119.382, 654.495 1111.335, 660.431 1103.288, 666.368 1097.553, 670.599 1089.507, 676.536 1081.460, 682.473 1077.141, 685.659 1069.094, 691.596 1061.047, 697.533 1058.853, 699.152 1058.853, 689.152 1058.853, 679.152 1058.853, 669.152 1058.853, 659.152 1058.853, 649.152 1058.853, 639.152 1058.853, 629.152 1058.853, 619.152 1058.853, 609.152 1058.853, 599.152 1058.853, 589.152 1058.853, 586.027 1066.831, 579.999 1074.810, 573.970 1082.788, 567.942 1090.766, 561.913 1098.745, 555.884 1106.723, 549.856 1114.702, 543.827 1122.680, 537.798 1130.659, 531.770 1138.637, 525.741 1146.615, 519.713 1154.594, 513.684 1162.572, 507.655 1170.551, 501.627 1178.529, 495.598 1186.508, 489.569 1194.486, 483.541 1202.465, 477.512 1210.443, 471.483 1218.422, 465.455 1226.400, 459.426 1234.378, 453.397 1242.357, 447.369 1250.335, 441.340 1258.314, 435.312 1266.292, 429.283 1274.271, 423.254 1282.249, 417.226 1290.227, 411.197 1298.206, 405.168 1300.688, 403.293 1303.975, 400.451 1306.751, 397.268 1309.015, 393.796 1310.766, 390.089 1312.002, 386.202 1312.723, 382.187 1312.927, 378.097 1312.614, 373.988 1311.781, 369.911 1310.428, 365.921 1308.555, 362.071 1306.159, 358.414 1303.351, 355.115 1300.250, 352.292 1296.899, 349.953 1293.342, 348.106 1289.621, 346.759 1285.781, 345.920 1281.866, 345.597 1277.917, 345.799 1273.980, 346.533 1270.097, 347.809 1266.312, 349.632 1262.668, 352.013 1259.955, 354.061 1252.288, 359.849 1244.307, 365.874 1240.375, 368.842 1232.394, 374.868 1224.924, 380.507 1216.943, 386.533 1208.962, 392.558 1206.641, 394.309 1198.660, 400.335 1190.679, 406.360 1186.236, 409.714 1178.255, 415.740 1170.274, 421.765 1164.415, 426.188 1156.434, 432.213 1148.453, 438.238 1141.886, 443.196 1133.905, 449.221 1125.924, 455.246 1119.358, 460.203 1111.377, 466.228 1103.396, 472.254 1097.537, 476.677 1089.556, 482.702 1081.575, 488.727 1077.131, 492.082 1069.150, 498.107 1061.169, 504.132 1058.849, 505.884 1058.849, 495.884 1058.849, 485.884 1058.849, 475.884 1058.849, 465.884 1058.849, 455.884 1058.849, 445.884 1058.849, 435.884 1058.849, 425.884 1058.849, 415.884 1058.849, 405.884 1058.849, 395.884 1058.849, 385.884 1058.849, 375.884 1058.849, 365.884 1058.849, 355.884 1058.849, 345.884 1058.849, 335.884 1058.849, 325.884 1058.849, 315.884 1058.849, 305.884 1058.849, 295.884 1058.849, 285.884 1058.849, 275.884 1058.849, 265.453 1066.802, 259.391 1074.756, 253.329 1082.709, 247.268 1090.663, 241.206 1098.616, 235.145 1106.570, 229.083 1114.523, 223.022 1122.476, 216.960 1130.430, 210.898 1138.383, 204.837 1146.337, 198.775 1154.290, 192.714 1162.244, 186.652 1170.197, 180.591 1172.426, 178.892 1175.713, 176.050 1178.489, 172.867 1180.754, 169.395 1182.504, 165.688 1183.741, 161.801 1184.461, 157.786 1184.666, 153.696 1184.352, 149.587 1183.519, 145.510 1182.167, 141.520 1180.293, 137.670 1177.897, 134.013 1175.086, 130.714 1171.981, 127.891 1168.626, 125.552 1165.066, 123.705 1161.343, 122.358 1157.502, 121.519 1153.585, 121.196 1149.637, 121.398 1145.702, 122.132 1141.823, 123.407 1138.043, 125.231 1134.406, 127.612 1133.401, 128.380 1130.559, 130.550 1126.142, 133.923 1120.414, 138.297 1113.637, 143.472 1106.072, 149.248 1098.125, 155.317 1097.983, 155.425 1090.035, 161.494 1089.632, 161.803 1081.684, 167.872 1081.280, 168.180 1073.332, 174.249 1073.191, 174.357 1065.626, 180.133 1058.849, 185.309 1058.849, 175.309 1058.849, 165.309 1058.849, 155.309 1058.849, 145.309 1058.849, 135.309 1058.849, 125.309 1058.849, 115.309 1058.849, 105.309 1058.849, 95.309 1058.849, 89.135 1058.556, 84.785 1057.703, 80.614 1056.329, 76.658 1054.471, 72.956 1052.167, 69.547 1049.457, 66.468 1046.377, 63.758 1042.967, 61.455 1039.265, 59.598 1035.308, 58.223 1031.136, 57.371 " fill="none" stroke="rgb(255, 255, 255)" stroke-linecap="butt" stroke-linejoin="round" stroke-opacity="1.0" stroke-width="24.0" />
            <path d=" M 832.244, 869.196 831.183, 859.253 830.121, 849.309 829.060, 839.365 827.999, 829.422 826.938, 819.478 825.877, 809.535 824.816, 799.591 823.755, 789.648 822.694, 779.704 821.632, 769.761 820.571, 759.817 819.510, 749.874 818.449, 739.930 817.388, 729.987 816.327, 720.043 815.266, 710.099 814.205, 700.156 813.143, 690.212 812.082, 680.269 811.021, 670.325 809.960, 660.382 808.899, 650.438 808.150, 643.420 816.247, 649.288 824.345, 655.156 832.442, 661.024 840.539, 666.892 848.637, 672.760 856.734, 678.628 864.831, 684.496 872.929, 690.364 881.026, 696.232 889.123, 702.100 897.221, 707.968 905.318, 713.836 913.415, 719.704 921.513, 725.572 929.610, 731.440 937.708, 737.307 945.805, 743.176 953.902, 749.043 962.000, 754.911 970.097, 760.779 978.194, 766.647 986.292, 772.515 994.726, 778.627 994.726, 788.627 994.726, 798.627 994.726, 808.627 994.726, 818.627 994.726, 828.627 994.726, 838.627 994.726, 848.627 994.726, 858.627 994.726, 868.627 994.726, 878.627 994.726, 888.627 994.726, 890.587 994.694, 890.938 994.607, 891.286 994.475, 891.633 994.312, 891.977 994.129, 892.320 993.938, 892.661 993.750, 893.002 993.578, 893.341 993.434, 893.681 993.328, 894.021 993.274, 894.360 993.283, 894.701 987.679, 896.260 982.147, 898.057 976.698, 900.088 971.347, 902.346 966.106, 904.826 960.988, 907.524 956.006, 910.433 951.173, 913.549 946.502, 916.866 942.006, 920.379 937.699, 924.083 933.593, 927.971 932.244, 927.189 928.432, 924.978 922.508, 921.543 914.825, 917.087 906.174, 912.070 905.734, 911.815 897.083, 906.798 895.587, 905.931 886.937, 900.914 884.737, 899.638 876.086, 894.621 873.534, 893.141 864.884, 888.125 862.332, 886.645 853.681, 881.628 851.481, 880.353 842.831, 875.336 841.335, 874.468 832.684, 869.452 832.244, 869.196 " fill="none" stroke="rgb(255, 255, 255)" stroke-linecap="butt" stroke-linejoin="round" stroke-opacity="1.0" stroke-width="24.0" />
            <path d=" M 1058.853, 778.627 1066.893, 772.682 1074.934, 766.737 1082.975, 760.791 1091.016, 754.846 1099.056, 748.901 1107.097, 742.955 1115.138, 737.010 1123.178, 731.065 1131.219, 725.119 1139.260, 719.174 1147.300, 713.229 1155.341, 707.283 1163.382, 701.338 1171.423, 695.393 1179.463, 689.447 1187.504, 683.502 1195.545, 677.557 1203.585, 671.611 1211.626, 665.666 1219.667, 659.720 1227.708, 653.775 1235.748, 647.830 1241.712, 643.420 1240.593, 653.357 1239.474, 663.295 1238.356, 673.232 1237.237, 683.169 1236.118, 693.106 1234.999, 703.043 1233.880, 712.981 1232.762, 722.918 1231.643, 732.855 1230.524, 742.792 1229.405, 752.729 1228.287, 762.667 1227.168, 772.604 1226.049, 782.541 1224.930, 792.478 1223.811, 802.416 1222.693, 812.353 1221.574, 822.290 1220.455, 832.227 1219.336, 842.165 1218.218, 852.102 1217.099, 862.039 1215.980, 871.976 1214.861, 881.913 1214.308, 886.827 1205.636, 891.807 1196.964, 896.786 1188.292, 901.766 1179.621, 906.746 1170.949, 911.726 1162.277, 916.706 1153.605, 921.686 1144.933, 926.666 1136.261, 931.646 1127.590, 936.626 1123.656, 938.885 1119.258, 933.643 1114.646, 928.650 1109.822, 923.916 1104.785, 919.451 1099.535, 915.266 1094.072, 911.371 1088.396, 907.778 1082.505, 904.496 1076.402, 901.536 1070.085, 898.910 1063.553, 896.627 1056.808, 894.697 1056.886, 894.358 1057.021, 894.018 1057.202, 893.679 1057.417, 893.340 1057.653, 893.001 1057.897, 892.661 1058.137, 892.319 1058.362, 891.977 1058.558, 891.633 1058.714, 891.286 1058.816, 890.938 1058.853, 890.587 1058.853, 880.587 1058.853, 870.587 1058.853, 860.587 1058.853, 850.587 1058.853, 840.587 1058.853, 830.587 1058.853, 820.587 1058.853, 810.587 1058.853, 800.587 1058.853, 790.587 1058.853, 780.587 1058.853, 778.627 " fill="none" stroke="rgb(255, 255, 255)" stroke-linecap="butt" stroke-linejoin="round" stroke-opacity="1.0" stroke-width="24.0" />
            <path d=" M 589.507, 1018.818 598.657, 1014.784 607.808, 1010.750 616.958, 1006.717 626.108, 1002.683 635.259, 998.649 644.409, 994.615 653.559, 990.581 662.710, 986.548 671.860, 982.514 681.010, 978.480 690.161, 974.446 699.311, 970.412 708.461, 966.379 717.612, 962.345 726.762, 958.311 735.912, 954.277 745.062, 950.243 754.213, 946.209 763.363, 942.176 772.513, 938.142 781.664, 934.108 790.814, 930.074 800.578, 925.770 809.239, 930.769 817.900, 935.768 826.560, 940.768 835.221, 945.767 843.882, 950.767 852.542, 955.766 861.203, 960.765 869.863, 965.765 878.524, 970.764 887.185, 975.763 895.845, 980.763 899.963, 983.140 899.170, 985.988 898.438, 988.860 897.769, 991.757 897.164, 994.677 896.625, 997.620 896.153, 1000.586 895.749, 1003.573 895.415, 1006.582 895.153, 1009.611 894.964, 1012.661 894.850, 1015.730 894.811, 1018.818 894.845, 1021.637 894.944, 1024.439 895.107, 1027.223 895.332, 1029.991 895.619, 1032.741 895.964, 1035.473 896.367, 1038.188 896.826, 1040.884 897.340, 1043.562 897.906, 1046.221 898.523, 1048.862 899.189, 1051.483 897.831, 1052.267 893.994, 1054.482 888.031, 1057.924 880.298, 1062.388 871.637, 1067.387 871.148, 1067.670 862.487, 1072.669 860.935, 1073.565 852.274, 1078.564 850.013, 1079.869 841.353, 1084.868 838.738, 1086.378 830.077, 1091.377 827.462, 1092.886 818.802, 1097.885 816.541, 1099.190 807.880, 1104.190 806.328, 1105.086 797.667, 1110.085 797.178, 1110.367 788.028, 1106.334 778.877, 1102.300 769.727, 1098.266 760.577, 1094.232 751.426, 1090.198 742.276, 1086.164 733.126, 1082.131 723.975, 1078.097 714.825, 1074.063 705.675, 1070.029 696.524, 1065.995 687.374, 1061.962 678.224, 1057.928 669.073, 1053.894 659.923, 1049.860 650.773, 1045.826 641.622, 1041.792 632.472, 1037.759 623.322, 1033.725 614.171, 1029.691 605.021, 1025.657 595.871, 1021.623 589.507, 1018.818 " fill="none" stroke="rgb(255, 255, 255)" stroke-linecap="butt" stroke-linejoin="round" stroke-opacity="1.0" stroke-width="24.0" />
            <path d=" M 1251.936, 938.616 1260.597, 933.617 1261.793, 932.926 1270.943, 936.960 1280.093, 940.994 1289.244, 945.027 1298.394, 949.061 1307.544, 953.095 1316.695, 957.129 1325.845, 961.162 1334.995, 965.196 1344.146, 969.230 1353.296, 973.264 1362.447, 977.297 1371.597, 981.331 1380.747, 985.365 1389.898, 989.398 1399.048, 993.432 1408.198, 997.466 1417.349, 1001.500 1426.499, 1005.533 1435.649, 1009.567 1444.800, 1013.601 1453.950, 1017.635 1456.635, 1018.818 1447.485, 1022.852 1438.334, 1026.885 1429.184, 1030.919 1420.033, 1034.953 1410.883, 1038.987 1401.733, 1043.020 1392.582, 1047.054 1383.432, 1051.088 1374.282, 1055.121 1365.131, 1059.155 1355.981, 1063.189 1346.830, 1067.222 1337.680, 1071.256 1328.530, 1075.290 1319.379, 1079.323 1310.229, 1083.357 1301.079, 1087.391 1291.928, 1091.424 1282.778, 1095.458 1273.627, 1099.492 1264.477, 1103.526 1255.327, 1107.559 1246.127, 1111.615 1237.358, 1106.808 1228.589, 1102.002 1219.820, 1097.195 1211.051, 1092.389 1202.281, 1087.583 1193.512, 1082.776 1184.743, 1077.970 1175.974, 1073.163 1167.205, 1068.357 1158.436, 1063.550 1149.666, 1058.744 1145.646, 1056.540 1146.531, 1053.542 1147.345, 1050.514 1148.087, 1047.458 1148.756, 1044.374 1149.350, 1041.264 1149.869, 1038.127 1150.311, 1034.966 1150.675, 1031.780 1150.960, 1028.572 1151.165, 1025.341 1151.289, 1022.090 1151.331, 1018.818 1151.315, 1017.009 1151.270, 1015.208 1151.195, 1013.415 1151.093, 1011.628 1150.964, 1009.849 1150.810, 1008.077 1150.632, 1006.312 1150.431, 1004.553 1150.208, 1002.801 1149.965, 1001.055 1149.703, 999.315 1149.422, 997.581 1149.630, 997.484 1149.839, 997.387 1150.048, 997.291 1150.257, 997.194 1150.466, 997.097 1150.674, 996.998 1150.882, 996.898 1151.089, 996.796 1151.296, 996.691 1151.501, 996.583 1151.706, 996.471 1151.909, 996.356 1153.372, 995.512 1157.505, 993.126 1163.928, 989.418 1172.258, 984.610 1180.919, 979.611 1182.115, 978.920 1190.775, 973.921 1193.116, 972.570 1201.776, 967.571 1204.880, 965.779 1213.540, 960.780 1217.025, 958.768 1225.686, 953.769 1229.171, 951.757 1237.832, 946.758 1240.935, 944.966 1249.596, 939.967 1251.936, 938.616 " fill="none" stroke="rgb(255, 255, 255)" stroke-linecap="butt" stroke-linejoin="round" stroke-opacity="1.0" stroke-width="24.0" />
            <path d=" M 1006.045, 956.995 1014.385, 955.287 1023.077, 954.701 1031.768, 955.287 1040.107, 956.995 1048.017, 959.746 1055.422, 963.465 1062.243, 968.075 1068.404, 973.498 1073.829, 979.658 1078.440, 986.478 1082.160, 993.881 1084.913, 1001.790 1086.621, 1010.128 1087.207, 1018.818 1086.624, 1027.474 1084.927, 1035.779 1082.194, 1043.660 1078.499, 1051.039 1073.920, 1057.840 1068.533, 1063.989 1062.412, 1069.408 1055.635, 1074.023 1048.278, 1077.757 1040.416, 1080.535 1032.125, 1082.280 1023.482, 1082.917 1023.447, 1082.915 1023.412, 1082.912 1023.378, 1082.909 1023.344, 1082.904 1023.310, 1082.899 1023.276, 1082.894 1023.243, 1082.890 1023.209, 1082.885 1023.175, 1082.881 1023.142, 1082.878 1023.107, 1082.876 1023.073, 1082.875 1023.038, 1082.876 1023.004, 1082.878 1022.969, 1082.881 1022.935, 1082.885 1022.901, 1082.890 1022.866, 1082.894 1022.832, 1082.899 1022.798, 1082.904 1022.763, 1082.909 1022.729, 1082.912 1022.694, 1082.915 1022.660, 1082.917 1014.016, 1082.281 1005.725, 1080.536 997.863, 1077.759 990.506, 1074.026 983.730, 1069.411 977.611, 1063.992 972.224, 1057.843 967.647, 1051.041 963.954, 1043.662 961.222, 1035.781 959.528, 1027.474 958.946, 1018.818 959.532, 1010.129 961.240, 1001.791 963.992, 993.883 967.712, 986.480 972.323, 979.660 977.747, 973.500 983.909, 968.076 990.730, 963.466 998.134, 959.747 1006.045, 956.995 " fill="none" stroke="rgb(255, 255, 255)" stroke-linecap="butt" stroke-linejoin="round" stroke-opacity="1.0" stroke-width="24.0" />
            <path d=" M 832.180, 1164.755 840.870, 1159.808 849.561, 1154.861 858.252, 1149.914 866.942, 1144.967 875.633, 1140.020 884.324, 1135.073 893.014, 1130.125 901.705, 1125.178 910.395, 1120.231 919.086, 1115.284 927.777, 1110.337 932.898, 1107.422 937.065, 1111.560 941.444, 1115.504 946.025, 1119.248 950.798, 1122.784 955.753, 1126.107 960.881, 1129.210 966.172, 1132.086 971.615, 1134.729 977.202, 1137.132 982.923, 1139.288 988.767, 1141.193 994.726, 1142.837 994.726, 1144.384 994.726, 1148.754 994.726, 1155.544 994.726, 1164.351 994.726, 1174.351 994.726, 1174.772 994.726, 1184.772 994.726, 1186.403 994.726, 1196.403 994.726, 1198.841 994.726, 1208.841 994.726, 1211.682 994.726, 1221.682 994.726, 1224.523 994.726, 1234.523 994.726, 1236.961 994.726, 1246.961 994.726, 1248.592 994.726, 1258.592 994.726, 1259.013 986.628, 1264.881 978.531, 1270.749 970.434, 1276.617 962.336, 1282.484 954.239, 1288.352 946.142, 1294.220 938.044, 1300.088 929.947, 1305.956 921.850, 1311.824 913.752, 1317.692 905.655, 1323.560 897.557, 1329.428 889.460, 1335.296 881.363, 1341.164 873.265, 1347.032 865.168, 1352.900 857.071, 1358.768 848.973, 1364.636 840.876, 1370.504 832.779, 1376.372 824.681, 1382.240 816.584, 1388.108 808.150, 1394.220 809.191, 1384.274 810.233, 1374.328 811.275, 1364.383 812.316, 1354.437 813.358, 1344.492 814.399, 1334.546 815.441, 1324.600 816.482, 1314.655 817.524, 1304.709 818.565, 1294.764 819.607, 1284.818 820.648, 1274.872 821.690, 1264.927 822.731, 1254.981 823.773, 1245.036 824.814, 1235.090 825.856, 1225.144 826.897, 1215.199 827.939, 1205.253 828.980, 1195.307 830.022, 1185.362 831.063, 1175.416 832.180, 1164.755 " fill="none" stroke="rgb(255, 255, 255)" stroke-linecap="butt" stroke-linejoin="round" stroke-opacity="1.0" stroke-width="24.0" />
            <path d=" M 1109.650, 1114.828 1113.710, 1111.153 1115.086, 1111.907 1118.974, 1114.038 1125.016, 1117.349 1132.853, 1121.645 1141.622, 1126.451 1142.125, 1126.727 1150.894, 1131.533 1152.474, 1132.399 1161.243, 1137.205 1163.541, 1138.464 1172.310, 1143.271 1174.967, 1144.727 1183.736, 1149.533 1186.393, 1150.989 1195.162, 1155.795 1197.460, 1157.055 1206.229, 1161.861 1207.809, 1162.727 1216.578, 1167.533 1217.081, 1167.809 1218.162, 1177.750 1219.244, 1187.692 1220.325, 1197.633 1221.406, 1207.574 1222.488, 1217.516 1223.569, 1227.457 1224.651, 1237.398 1225.732, 1247.340 1226.813, 1257.281 1227.895, 1267.223 1228.976, 1277.164 1230.057, 1287.105 1231.139, 1297.047 1232.220, 1306.988 1233.301, 1316.929 1234.383, 1326.871 1235.464, 1336.812 1236.545, 1346.753 1237.627, 1356.695 1238.708, 1366.636 1239.789, 1376.578 1240.871, 1386.519 1241.708, 1394.220 1233.668, 1388.274 1225.627, 1382.329 1217.586, 1376.383 1209.546, 1370.438 1201.505, 1364.493 1193.464, 1358.547 1185.424, 1352.602 1177.383, 1346.656 1169.342, 1340.711 1161.302, 1334.766 1153.261, 1328.820 1145.220, 1322.875 1137.180, 1316.929 1129.139, 1310.984 1121.099, 1305.038 1113.058, 1299.093 1105.017, 1293.148 1096.977, 1287.202 1088.936, 1281.257 1080.895, 1275.311 1072.855, 1269.366 1064.814, 1263.421 1058.853, 1259.013 1058.853, 1249.013 1058.853, 1239.013 1058.853, 1229.013 1058.853, 1219.013 1058.853, 1209.013 1058.853, 1199.013 1058.853, 1189.013 1058.853, 1179.013 1058.853, 1169.013 1058.853, 1159.013 1058.853, 1149.013 1058.853, 1142.834 1063.001, 1141.321 1067.397, 1139.586 1071.988, 1137.635 1076.724, 1135.472 1081.554, 1133.103 1086.426, 1130.532 1091.291, 1127.764 1096.096, 1124.805 1100.792, 1121.659 1105.327, 1118.332 1109.650, 1114.828 " fill="none" stroke="rgb(255, 255, 255)" stroke-linecap="butt" stroke-linejoin="round" stroke-opacity="1.0" stroke-width="24.0" />
        </g>
    </g>
</svg>
